<svg xmlns="http://www.w3.org/2000/svg" xmlns:xlink="http://www.w3.org/1999/xlink" width="1045.117" height="728.783" viewBox="0 0 1045.117 728.783">
  <defs>
    <clipPath id="clip-path">
      <rect width="891.187" height="728.783" fill="none"/>
    </clipPath>
    <clipPath id="clip-path-2">
      <rect width="919.725" height="530.512" fill="none"/>
    </clipPath>
    <clipPath id="clip-path-3">
      <rect width="164.004" height="169.498" fill="none"/>
    </clipPath>
    <linearGradient id="linear-gradient" x1="0.5" x2="0.5" y2="1" gradientUnits="objectBoundingBox">
      <stop offset="0" stop-color="#6ebd44"/>
      <stop offset="1" stop-color="#92cf4b"/>
    </linearGradient>
    <linearGradient id="linear-gradient-2" x1="0.5" x2="0.5" y2="1" gradientUnits="objectBoundingBox">
      <stop offset="0" stop-color="#6ebd44"/>
      <stop offset="0" stop-color="#7cc447"/>
      <stop offset="1" stop-color="#92cf4b"/>
    </linearGradient>
    <linearGradient id="linear-gradient-3" x1="0.5" x2="0.5" y2="1" gradientUnits="objectBoundingBox">
      <stop offset="0" stop-color="#92cf4b"/>
      <stop offset="1" stop-color="#6ebd44"/>
    </linearGradient>
  </defs>
  <g id="Group_3830" data-name="Group 3830" transform="translate(-874.883 -6002.859)">
    <g id="Repeat_Grid_12" data-name="Repeat Grid 12" transform="translate(874.883 6002.859)" clip-path="url(#clip-path)">
      <g transform="translate(-874.883 -6347.859)">
        <g id="Group_3663" data-name="Group 3663" transform="translate(3011.879 6478.278) rotate(20)">
          <path id="Path_4537" data-name="Path 4537" d="M756.421,640.5c-3.258,1.627-6.513,3.257-1.629,1.627" transform="translate(-2402.48 -54.527)" fill="rgba(255,255,255,0)" stroke="#82c748" stroke-linecap="round" stroke-linejoin="round" stroke-width="4.222"/>
          <path id="Path_4538" data-name="Path 4538" d="M625.276,861.684c-1.627,1.631-1.627,0-1.627-1.627" transform="translate(-2323.441 -189.415)" fill="rgba(255,255,255,0)" stroke="#82c748" stroke-linecap="round" stroke-linejoin="round" stroke-width="4.222"/>
          <path id="Path_4539" data-name="Path 4539" d="M405.313,553.454c-3.256,0-1.629-1.627,0-1.627" transform="translate(-2188.149 -0.05)" fill="rgba(255,255,255,0)" stroke="#82c748" stroke-linecap="round" stroke-linejoin="round" stroke-width="4.222"/>
          <path id="Path_4540" data-name="Path 4540" d="M788.316,331.3c0-1.631,0-1.631,1.627-3.258" transform="translate(-2424.606 137.437)" fill="rgba(255,255,255,0)" stroke="#82c748" stroke-linecap="round" stroke-linejoin="round" stroke-width="4.222"/>
          <path id="Path_4541" data-name="Path 4541" d="M1136.826,644.717c-1.627,3.257-1.627,1.63,0,0" transform="translate(-2637.968 -57.118)" fill="rgba(255,255,255,0)" stroke="#82c748" stroke-linecap="round" stroke-linejoin="round" stroke-width="4.222"/>
          <path id="Path_4542" data-name="Path 4542" d="M1316.11,361.818h0" transform="translate(-2748.863 116.684)" fill="rgba(255,255,255,0)" stroke="#82c748" stroke-linecap="round" stroke-linejoin="round" stroke-width="4.222"/>
          <path id="Path_4543" data-name="Path 4543" d="M1810.12,425.157" transform="translate(-3052.363 77.771)" fill="rgba(255,255,255,0)" stroke="#82c748" stroke-linecap="round" stroke-linejoin="round" stroke-width="4.222"/>
          <path id="Path_4544" data-name="Path 4544" d="M1810.12,986.727" transform="translate(-3052.363 -267.236)" fill="rgba(255,255,255,0)" stroke="#82c748" stroke-linecap="round" stroke-linejoin="round" stroke-width="4.222"/>
          <path id="Path_4545" data-name="Path 4545" d="M1645.45,1071.18v1.626" transform="translate(-3001.715 -365.398)" fill="rgba(255,255,255,0)" stroke="#82c748" stroke-linecap="round" stroke-linejoin="round" stroke-width="4.222"/>
          <path id="Path_4546" data-name="Path 4546" d="M661.326,1379.169v-1.626" transform="translate(-2346.588 -507.338)" fill="rgba(255,255,255,0)" stroke="#82c748" stroke-linecap="round" stroke-linejoin="round" stroke-width="4.222"/>
          <path id="Path_4547" data-name="Path 4547" d="M1414.255,1195.592c-1.629,1.627-1.629,0-1.629-1.631" transform="translate(-2894.927 -494.047)" fill="rgba(255,255,255,0)" stroke="#82c748" stroke-linecap="round" stroke-linejoin="round" stroke-width="4.222"/>
          <path id="Path_4548" data-name="Path 4548" d="M690.814,1213.112c-1.627,0-1.627,0,0-1.631" transform="translate(-2363.954 -405.316)" fill="rgba(255,255,255,0)" stroke="#82c748" stroke-linecap="round" stroke-linejoin="round" stroke-width="4.222"/>
          <path id="Path_4549" data-name="Path 4549" d="M496.011,1480.75c-1.627,1.627-1.627,1.627-3.257,0" transform="translate(-2243.023 -570.745)" fill="rgba(255,255,255,0)" stroke="#82c748" stroke-linecap="round" stroke-linejoin="round" stroke-width="4.222"/>
          <path id="Path_4550" data-name="Path 4550" d="M281.639,1161.469c1.627,0,3.256-1.626,4.885-1.626" transform="translate(-2113.323 -373.591)" fill="rgba(255,255,255,0)" stroke="#82c748" stroke-linecap="round" stroke-linejoin="round" stroke-width="4.222"/>
          <path id="Path_4551" data-name="Path 4551" d="M458.977,1134.51" transform="translate(-2222.272 -358.028)" fill="rgba(255,255,255,0)" stroke="#82c748" stroke-linecap="round" stroke-linejoin="round" stroke-width="4.222"/>
          <path id="Path_4552" data-name="Path 4552" d="M214.08,619.385h0" transform="translate(-2071.817 -41.555)" fill="rgba(255,255,255,0)" stroke="#82c748" stroke-linecap="round" stroke-linejoin="round" stroke-width="4.222"/>
          <line id="Line_3" data-name="Line 3" transform="translate(-1887.046 740.659)" fill="none" stroke="#82c748" stroke-linecap="round" stroke-linejoin="round" stroke-width="4.222"/>
          <line id="Line_4" data-name="Line 4" y1="1.631" x2="1.629" transform="translate(-1838.198 965.364)" fill="none" stroke="#82c748" stroke-linecap="round" stroke-linejoin="round" stroke-width="4.222"/>
          <line id="Line_5" data-name="Line 5" y1="1.631" x2="1.631" transform="translate(-1659.088 1054.919)" fill="none" stroke="#82c748" stroke-linecap="round" stroke-linejoin="round" stroke-width="4.222"/>
          <line id="Line_6" data-name="Line 6" y1="1.627" transform="translate(-1457.176 1059.804)" fill="none" stroke="#82c748" stroke-linecap="round" stroke-linejoin="round" stroke-width="4.222"/>
          <path id="Path_4553" data-name="Path 4553" d="M1404.78,1691.85" transform="translate(-2890.106 -799.931)" fill="rgba(255,255,255,0)" stroke="#82c748" stroke-linecap="round" stroke-linejoin="round" stroke-width="4.222"/>
          <path id="Path_4554" data-name="Path 4554" d="M1687.67,1708.74c0,3.258,1.631,1.631,1.631,0" transform="translate(-3063.904 -810.308)" fill="rgba(255,255,255,0)" stroke="#82c748" stroke-linecap="round" stroke-linejoin="round" stroke-width="4.222"/>
          <path id="Path_4555" data-name="Path 4555" d="M1535.67,1336.217c1.631-1.626,3.258-1.626,4.885-3.253" transform="translate(-2970.521 -579.445)" fill="rgba(255,255,255,0)" stroke="#82c748" stroke-linecap="round" stroke-linejoin="round" stroke-width="4.222"/>
          <line id="Line_7" data-name="Line 7" x1="1.629" transform="translate(-1211.302 841.614)" fill="none" stroke="#82c748" stroke-linecap="round" stroke-linejoin="round" stroke-width="4.222"/>
          <path id="Path_4556" data-name="Path 4556" d="M1983.24,1041.62" transform="translate(-3158.722 -300.96)" fill="rgba(255,255,255,0)" stroke="#82c748" stroke-linecap="round" stroke-linejoin="round" stroke-width="4.222"/>
          <path id="Path_4557" data-name="Path 4557" d="M1908.872,796.718h-1.631" transform="translate(-3112.031 -150.502)" fill="rgba(255,255,255,0)" stroke="#82c748" stroke-linecap="round" stroke-linejoin="round" stroke-width="4.222"/>
          <line id="Line_8" data-name="Line 8" y1="1.631" x2="1.629" transform="translate(-1323.657 654.358)" fill="none" stroke="#82c748" stroke-linecap="round" stroke-linejoin="round" stroke-width="4.222"/>
          <line id="Line_9" data-name="Line 9" y1="1.627" x2="1.627" transform="translate(-1346.45 480.129)" fill="none" stroke="#82c748" stroke-linecap="round" stroke-linejoin="round" stroke-width="4.222"/>
          <path id="Path_4558" data-name="Path 4558" d="M1392.12,729.16h0" transform="translate(-2795.56 -108.997)" fill="rgba(255,255,255,0)" stroke="#82c748" stroke-linecap="round" stroke-linejoin="round" stroke-width="4.222"/>
          <path id="Path_4559" data-name="Path 4559" d="M1204.381,773.008c-1.631,0-1.631-1.627,0-1.627" transform="translate(-2679.47 -134.936)" fill="rgba(255,255,255,0)" stroke="#82c748" stroke-linecap="round" stroke-linejoin="round" stroke-width="4.222"/>
          <path id="Path_4560" data-name="Path 4560" d="M1115.066,551.827c-1.629,1.627-1.629,1.627-1.629,3.258" transform="translate(-2624.348 -0.05)" fill="rgba(255,255,255,0)" stroke="#82c748" stroke-linecap="round" stroke-linejoin="round" stroke-width="4.222"/>
          <path id="Path_4561" data-name="Path 4561" d="M990.025,602.5h-3.257" transform="translate(-2546.527 -31.182)" fill="rgba(255,255,255,0)" stroke="#82c748" stroke-linecap="round" stroke-linejoin="round" stroke-width="4.222"/>
          <path id="Path_4562" data-name="Path 4562" d="M1058.55,387.159" transform="translate(-2590.628 101.116)" fill="rgba(255,255,255,0)" stroke="#82c748" stroke-linecap="round" stroke-linejoin="round" stroke-width="4.222"/>
          <path id="Path_4563" data-name="Path 4563" d="M798.391,475.821h-1.627" transform="translate(-2429.796 46.645)" fill="rgba(255,255,255,0)" stroke="#82c748" stroke-linecap="round" stroke-linejoin="round" stroke-width="4.222"/>
          <path id="Path_4564" data-name="Path 4564" d="M686.984,260.48" transform="translate(-2362.351 178.942)" fill="rgba(255,255,255,0)" stroke="#82c748" stroke-linecap="round" stroke-linejoin="round" stroke-width="4.222"/>
          <path id="Path_4565" data-name="Path 4565" d="M1185.22,198.777c1.629,0,1.629,0,1.629-1.627" transform="translate(-2668.448 217.85)" fill="rgba(255,255,255,0)" stroke="#82c748" stroke-linecap="round" stroke-linejoin="round" stroke-width="4.222"/>
          <path id="Path_4566" data-name="Path 4566" d="M1161.508,481.67c-1.627,0-1.627,0-1.627-1.631" transform="translate(-2652.882 44.054)" fill="rgba(255,255,255,0)" stroke="#82c748" stroke-linecap="round" stroke-linejoin="round" stroke-width="4.222"/>
          <path id="Path_4567" data-name="Path 4567" d="M1058.55,353.37" transform="translate(-2590.628 121.874)" fill="rgba(255,255,255,0)" stroke="#82c748" stroke-linecap="round" stroke-linejoin="round" stroke-width="4.222"/>
          <line id="Line_10" data-name="Line 10" x1="1.631" transform="translate(-1629.777 564.803)" fill="none" stroke="#82c748" stroke-linecap="round" stroke-linejoin="round" stroke-width="4.222"/>
          <path id="Path_4568" data-name="Path 4568" d="M695.426,800.947" transform="translate(-2367.538 -153.1)" fill="rgba(255,255,255,0)" stroke="#82c748" stroke-linecap="round" stroke-linejoin="round" stroke-width="4.222"/>
          <path id="Path_4569" data-name="Path 4569" d="M705.5,601.772c1.627-1.631-1.631,1.627-1.631,1.627" transform="translate(-2372.726 -30.454)" fill="rgba(255,255,255,0)" stroke="#82c748" stroke-linecap="round" stroke-linejoin="round" stroke-width="4.222"/>
          <path id="Path_4570" data-name="Path 4570" d="M484.309,815.883c0-1.631,1.627-1.631,3.255,0" transform="translate(-2237.836 -161.525)" fill="rgba(255,255,255,0)" stroke="#82c748" stroke-linecap="round" stroke-linejoin="round" stroke-width="4.222"/>
          <path id="Path_4571" data-name="Path 4571" d="M720.763,999.393" transform="translate(-2383.104 -275.018)" fill="rgba(255,255,255,0)" stroke="#82c748" stroke-linecap="round" stroke-linejoin="round" stroke-width="4.222"/>
          <line id="Line_11" data-name="Line 11" y1="1.627" x2="1.627" transform="translate(-1719.332 771.597)" fill="none" stroke="#82c748" stroke-linecap="round" stroke-linejoin="round" stroke-width="4.222"/>
          <path id="Path_4572" data-name="Path 4572" d="M796.764,1286.51h0" transform="translate(-2429.796 -451.411)" fill="rgba(255,255,255,0)" stroke="#82c748" stroke-linecap="round" stroke-linejoin="round" stroke-width="4.222"/>
          <line id="Line_12" data-name="Line 12" y1="0.002" x2="0.298" transform="translate(-1704.678 862.777)" fill="none" stroke="#82c748" stroke-linecap="round" stroke-linejoin="round" stroke-width="4.222"/>
          <path id="Path_4573" data-name="Path 4573" d="M842.023,996.628c-3.259,0,0,1.631,1.627,1.631" transform="translate(-2456.745 -273.319)" fill="rgba(255,255,255,0)" stroke="#82c748" stroke-linecap="round" stroke-linejoin="round" stroke-width="4.222"/>
          <path id="Path_4574" data-name="Path 4574" d="M1371.7,1267.34v1.631" transform="translate(-2869.784 -539.129)" fill="rgba(255,255,255,0)" stroke="#82c748" stroke-linecap="round" stroke-linejoin="round" stroke-width="4.222"/>
          <path id="Path_4575" data-name="Path 4575" d="M1093.955,1645.42h-1.629" transform="translate(-2611.378 -671.912)" fill="rgba(255,255,255,0)" stroke="#82c748" stroke-linecap="round" stroke-linejoin="round" stroke-width="4.222"/>
          <path id="Path_4576" data-name="Path 4576" d="M902.314,1700.31" transform="translate(-2494.642 -705.634)" fill="rgba(255,255,255,0)" stroke="#82c748" stroke-linecap="round" stroke-linejoin="round" stroke-width="4.222"/>
          <line id="Line_13" data-name="Line 13" transform="translate(-1465.787 769.8)" fill="none" stroke="#82c748" stroke-linecap="round" stroke-linejoin="round" stroke-width="4.222"/>
          <path id="Path_4577" data-name="Path 4577" d="M1396.34,1590.52" transform="translate(-2884.921 -737.678)" fill="rgba(255,255,255,0)" stroke="#82c748" stroke-linecap="round" stroke-linejoin="round" stroke-width="4.222"/>
          <path id="Path_4578" data-name="Path 4578" d="M1349.89,1573.63q2.446,2.44,4.886,0" transform="translate(-2856.385 -727.302)" fill="rgba(255,255,255,0)" stroke="#82c748" stroke-linecap="round" stroke-linejoin="round" stroke-width="4.222"/>
          <path id="Path_4579" data-name="Path 4579" d="M1497.67,1522.96" transform="translate(-2947.175 -696.172)" fill="rgba(255,255,255,0)" stroke="#82c748" stroke-linecap="round" stroke-linejoin="round" stroke-width="4.222"/>
          <path id="Path_4580" data-name="Path 4580" d="M1624.34,1286.51" transform="translate(-3024.996 -550.906)" fill="rgba(255,255,255,0)" stroke="#82c748" stroke-linecap="round" stroke-linejoin="round" stroke-width="4.222"/>
          <path id="Path_4581" data-name="Path 4581" d="M1573.67,1254.362a1.6,1.6,0,0,0,1.631-1.63" transform="translate(-2993.867 -530.154)" fill="rgba(255,255,255,0)" stroke="#82c748" stroke-linecap="round" stroke-linejoin="round" stroke-width="4.222"/>
          <path id="Path_4582" data-name="Path 4582" d="M1708.79,1071.18" transform="translate(-3040.629 -365.397)" fill="rgba(255,255,255,0)" stroke="#82c748" stroke-linecap="round" stroke-linejoin="round" stroke-width="4.222"/>
          <path id="Path_4583" data-name="Path 4583" d="M1632.79,944.511" transform="translate(-2943.418 -241.3)" fill="rgba(255,255,255,0)" stroke="#82c748" stroke-linecap="round" stroke-linejoin="round" stroke-width="4.222"/>
          <path id="Path_4584" data-name="Path 4584" d="M1700.34,855.829" transform="translate(-2984.919 -186.817)" fill="rgba(255,255,255,0)" stroke="#82c748" stroke-linecap="round" stroke-linejoin="round" stroke-width="4.222"/>
          <path id="Path_4585" data-name="Path 4585" d="M1535.67,827.908v-1.627" transform="translate(-2883.752 -168.664)" fill="rgba(255,255,255,0)" stroke="#82c748" stroke-linecap="round" stroke-linejoin="round" stroke-width="4.222"/>
          <path id="Path_4586" data-name="Path 4586" d="M1602.538,903.908c-4.885,4.885-3.257,3.258,0-1.627" transform="translate(-2922.938 -215.356)" fill="rgba(255,255,255,0)" stroke="#82c748" stroke-linecap="round" stroke-linejoin="round" stroke-width="4.222"/>
          <path id="Path_4587" data-name="Path 4587" d="M1666.57,789.909a1.593,1.593,0,0,1,1.627-1.627" transform="translate(-2964.172 -145.319)" fill="rgba(255,255,255,0)" stroke="#82c748" stroke-linecap="round" stroke-linejoin="round" stroke-width="4.222"/>
          <path id="Path_3829" data-name="Path 3829" d="M4858.85,1940.821s2.406-5.052,9.143-.964" transform="translate(-6596.775 -1105.163)" fill="rgba(255,255,255,0)" stroke="#82c748" stroke-width="1"/>
          <path id="Path_3830" data-name="Path 3830" d="M4841.432,2011.674s-1.443-8.662,8.42-6.737c0,0,5.534-9.383,12.271,0" transform="translate(-6584.893 -1147.625)" fill="rgba(255,255,255,0)" stroke="#82c748" stroke-width="1"/>
          <path id="Path_3831" data-name="Path 3831" d="M4845.2,2079.04s-2.646,7.459,5.293,8.661" transform="translate(-6587.211 -1200.798)" fill="rgba(255,255,255,0)" stroke="#82c748" stroke-width="1"/>
          <path id="Path_4647" data-name="Path 4647" d="M0,2.274A37,37,0,0,1,20.28.77" transform="translate(-1604.651 719.647) rotate(8)" fill="rgba(255,255,255,0)" stroke="#82c748" stroke-width="1"/>
        </g>
      </g>
    </g>
    <g id="Repeat_Grid_7" data-name="Repeat Grid 7" transform="translate(1000.275 6114)" clip-path="url(#clip-path-2)">
      <g id="Group_3273" data-name="Group 3273" transform="translate(-1000.005 -1000.215)">
        <path id="Path_10406" data-name="Path 10406" d="M3810.828,1021.983l-540.516,317.546s-18.671,7.313-16.7,26.391c9.074,18.988,30.229,16.735,39.144,36.841s-3.486,43.585-3.486,43.585-52.305,44.248-108.189,46.611" transform="translate(-1693.351 -108.937)" fill="none" stroke="#82c748" stroke-width="1" stroke-dasharray="13"/>
        <path id="Path_10404" data-name="Path 10404" d="M.609,8.48,0,8.109A31.415,31.415,0,0,1,12.933.973C18.864-.542,26.726-.493,31.407,2.6c13.115,7.934,28.508,17.175,40.809,12.532s42.663-6.146,43.927-2.191l-.625,1.872-3.069.617L96.959,23.99,50.55,31.932Z" transform="matrix(0.985, -0.174, 0.174, 0.985, 1562.913, 1146.451)" fill="#fff" stroke="#000" stroke-width="1"/>
        <path id="Path_10403" data-name="Path 10403" d="M0,8.929,106.171,68.456l-.408-52.617s-17.728-5.353-34.142-.254S35.376,9.192,35.376,9.192,21.9.066,13.06,0,0,8.929,0,8.929Z" transform="matrix(0.985, -0.174, 0.174, 0.985, 1555.122, 1155.616)" fill="#fff" stroke="#000" stroke-width="1"/>
        <path id="Path_10405" data-name="Path 10405" d="M3418.085,1314.147l16.154-12.346v75.837l-15.583,15.69-.594-.532v-.945Z" transform="translate(-1754.923 -161.716)" fill="#fff" stroke="#000" stroke-width="1"/>
        <path id="Path_10392" data-name="Path 10392" d="M3401.349,1303.878s10.263-11.118,21.381-10.263,17.96,3.849,17.96,3.849v6.414Z" transform="translate(-1778.048 -126.848)" fill="#82c748"/>
        <path id="Path_10391" data-name="Path 10391" d="M3338.981,1298.731l-.63-.4a33.07,33.07,0,0,1,13.5-7.838c6.18-1.689,14.355-1.7,19.2,1.611,13.574,8.494,29.506,18.388,42.334,13.256s41.058-5.443,42.341-1.167l-.509,1.167-16.175,9.407-48.321,8.98Z" transform="translate(-1792.683 -127.905)" fill="#fff" stroke="#000" stroke-width="1"/>
        <g id="Group_531" data-name="Group 531" transform="translate(1220.595 1306.473)">
          <path id="Path_9426" data-name="Path 9426" d="M172.106,374.477v-.821l1.53.463,1.481-4.89-9.864-2.989-1.482,4.89,2.346.711v2.9l-13.347,25.306h3.348l10.306-19.116-6.279,19.116h3.347l6.846-20.717,11.9,20.717h3.347Z" transform="translate(-133.441 -335.122)" fill="#82c748" stroke="#212121" stroke-width="1"/>
          <g id="Group_529" data-name="Group 529" transform="translate(0 2.176)">
            <rect id="Rectangle_297" data-name="Rectangle 297" width="13.875" height="13.83" transform="translate(48.74 28.609) rotate(-73.812)" fill="#82c748" stroke="#212121" stroke-width="1"/>
            <rect id="Rectangle_298" data-name="Rectangle 298" width="8.06" height="4.757" transform="matrix(0.279, -0.96, 0.96, 0.279, 64.662, 30.479)" fill="#82c748" stroke="#212121" stroke-width="1"/>
            <path id="Path_9427" data-name="Path 9427" d="M145.021,360.834c-1.372,4.726.4,9.392,3.947,10.423l4.966-17.112C150.382,353.115,146.393,356.109,145.021,360.834Z" transform="translate(-144.556 -353.943)" fill="#82c748" stroke="#212121" stroke-width="1"/>
          </g>
          <path id="Path_9428" data-name="Path 9428" d="M153.185,353.018l-6.557,22.66,9.005,2.614,6.522-22.669Z" transform="translate(-141.753 -353.018)" fill="#fff" stroke="#212121" stroke-width="1"/>
          <g id="Group_530" data-name="Group 530" transform="translate(15.918 4.358)">
            <path id="Path_9429" data-name="Path 9429" d="M187.93,363.822l-30.843-8.952-5.767,20.066,30.789,8.937Z" transform="translate(-151.32 -354.87)" fill="#fff" stroke="#212121" stroke-width="1"/>
          </g>
        </g>
        <path id="Path_10362" data-name="Path 10362" d="M2931.449,1323.818l73.979-41.479-3.874,97.052-60.958,34.525,1.618,18.341-10.765-1.533Z" transform="translate(-1895.297 -129.68)" fill="#fff" stroke="#000" stroke-width="1"/>
        <path id="Union_1" data-name="Union 1" d="M0,36.174l57.028-32.7A14.09,14.09,0,0,1,66.361,0c7.607,0,13.774,5.886,13.774,13.147A13.2,13.2,0,0,1,71.15,25.479l-62.2,35.8Z" transform="translate(1043.733 1249.279)" fill="#fff" stroke="#000" stroke-width="1"/>
        <path id="Path_10364" data-name="Path 10364" d="M2947.421,1333.072l32.894-19.078" transform="translate(-1891.269 -121.698)" fill="none" stroke="#000" stroke-width="1"/>
        <path id="Path_10365" data-name="Path 10365" d="M2947.421,1341.317l45.8-27.324" transform="translate(-1897.53 -117.421)" fill="none" stroke="#000" stroke-width="1"/>
        <path id="Path_10366" data-name="Path 10366" d="M2942.421,1354.427l45.4-25.986v25.986l-45.4,26.644Z" transform="translate(-1892.53 -118.054)" fill="#82c748" stroke="#000" stroke-width="1"/>
        <path id="Path_10367" data-name="Path 10367" d="M2941.5,1385.032l46.887-26.644" transform="translate(-1892.763 -110.502)" fill="none" stroke="#000" stroke-width="1"/>
        <path id="Path_10368" data-name="Path 10368" d="M2945.32,1371.077s6.348-16.645,12.581-18.092,4.92,2.108,11.432,0,13.689-18.824,13.689-18.824" transform="translate(-1891.799 -116.612)" fill="none" stroke="#fff" stroke-width="1"/>
        <path id="Path_10369" data-name="Path 10369" d="M2970.8,1335.735l6.579-2.3.443,6.39" transform="translate(-1885.373 -116.795)" fill="none" stroke="#fff" stroke-width="1"/>
        <path id="Path_10370" data-name="Path 10370" d="M2999.435,1281l45.394-25.328v72.367l-45.394,26.644Z" transform="translate(-1878.153 -136.404)" fill="#fff" stroke="#303030" stroke-width="1"/>
        <path id="Path_10371" data-name="Path 10371" d="M3003.637,1301.352l34.539-19.407" transform="translate(-1877.092 -129.78)" fill="none" stroke="#000" stroke-width="1"/>
        <path id="Path_10373" data-name="Path 10373" d="M3003.637,1301.352l34.539-19.407" transform="translate(-1877.092 -122.267)" fill="none" stroke="#000" stroke-width="1"/>
        <path id="Path_10374" data-name="Path 10374" d="M3003.637,1301.352l34.539-19.407" transform="translate(-1877.092 -116.006)" fill="none" stroke="#000" stroke-width="1"/>
        <path id="Path_10375" data-name="Path 10375" d="M3003.637,1301.352l34.539-19.407" transform="translate(-1877.092 -108.493)" fill="none" stroke="#000" stroke-width="1"/>
        <path id="Path_10376" data-name="Path 10376" d="M3003.637,1291.666l17.434-9.722" transform="translate(-1877.092 -91.294)" fill="none" stroke="#000" stroke-width="1"/>
        <path id="Path_10372" data-name="Path 10372" d="M3020.187,1271.843v14.145l12.5-6.908v-14.473Z" transform="translate(-1872.919 -134.152)" fill="#fff" stroke="#303030" stroke-width="1"/>
        <path id="Path_10377" data-name="Path 10377" d="M3020.187,1271.843v14.145l12.5-6.908v-14.473Z" transform="translate(-1892.954 -122.882)" fill="#fff" stroke="#303030" stroke-width="1"/>
        <path id="Path_10378" data-name="Path 10378" d="M3005.188,1284.421s5.321-4.342,8.167,3.294l-8.167,4.791Z" transform="translate(-1877.954 -129.465)" fill="#82c748"/>
        <path id="Path_10380" data-name="Path 10380" d="M3146.277,1368.954v-22.366l17.763-11.842h8.881l17.1,11.842v22.366l-17.1-3.8-8.881-1.265Z" transform="translate(-1841.121 -128.986)" fill="#fff" stroke="#000" stroke-width="1"/>
        <path id="Path_10379" data-name="Path 10379" d="M3146.277,1334.746v22.366l17.763,11.842h8.881l17.1-11.842v-22.366l-17.1,12.169h-8.881Z" transform="translate(-1841.121 -116.464)" fill="#fff" stroke="#000" stroke-width="1"/>
        <g id="Ellipse_14" data-name="Ellipse 14" transform="translate(1296 1133)" fill="#82c748" stroke="#000" stroke-width="1">
          <circle cx="31.5" cy="31.5" r="31.5" stroke="none"/>
          <circle cx="31.5" cy="31.5" r="31" fill="none"/>
        </g>
        <path id="Path_10381" data-name="Path 10381" d="M3164,1283.191v77.056" transform="translate(-1836.652 -129.465)" fill="none" stroke="#000" stroke-width="1"/>
        <path id="Path_10382" data-name="Path 10382" d="M3164,1293.27l6.307-6.307" transform="translate(-1836.652 -128.514)" fill="none" stroke="#000" stroke-width="1"/>
        <path id="Path_10383" data-name="Path 10383" d="M3164,1307.027l16.24-16.194" transform="translate(-1836.652 -127.538)" fill="none" stroke="#000" stroke-width="1"/>
        <path id="Path_10384" data-name="Path 10384" d="M3880.96,1021.983l-540.516,317.546s-18.671,7.313-16.7,26.391c9.074,18.988,30.229,16.735,39.144,36.841s-3.486,43.585-3.486,43.585-52.305,44.248-108.189,46.611-77.827-51.315-115.344-37.158-221.061,127.018-221.061,127.018-11.327,4.375-11.814,20.788,11.814,21.958,11.814,21.958,90.378,59.54,125.8,75.723,69.053-25.4,69.053-25.4" transform="translate(-1902.476 -195.338)" fill="none" stroke="#82c748" stroke-width="1"/>
        <g id="Group_3229" data-name="Group 3229" transform="translate(1178.67 1394.47)">
          <g id="Group_3228" data-name="Group 3228">
            <path id="Path_10385" data-name="Path 10385" d="M3042.04,1508.884c4.808,5.82,31.376,32.135,31.376,32.135s5.061,3.289,8.1,0-1.012-8.1-1.012-8.1l-32.894-33.147S3037.232,1503.065,3042.04,1508.884Z" transform="translate(-2968.763 -1421.734)" fill="#fff" stroke="#070707" stroke-width="1"/>
            <g id="Ellipse_17" data-name="Ellipse 17" transform="matrix(0.883, -0.469, 0.469, 0.883, 0, 28.218)" fill="#fff" stroke="#070707" stroke-width="1">
              <ellipse cx="30.052" cy="44.453" rx="30.052" ry="44.453" stroke="none"/>
              <ellipse cx="30.052" cy="44.453" rx="29.552" ry="43.953" fill="none"/>
            </g>
            <g id="Ellipse_16" data-name="Ellipse 16" transform="matrix(0.883, -0.469, 0.469, 0.883, 1.176, 30.429)" fill="#fff" stroke="#070707" stroke-width="1">
              <ellipse cx="25.044" cy="42.574" rx="25.044" ry="42.574" stroke="none"/>
              <ellipse cx="25.044" cy="42.574" rx="24.544" ry="42.074" fill="none"/>
            </g>
            <g id="Ellipse_15" data-name="Ellipse 15" transform="matrix(0.883, -0.469, 0.469, 0.883, 7.432, 34.193)" fill="#fff" stroke="#070707" stroke-width="1">
              <ellipse cx="21.287" cy="36.313" rx="21.287" ry="36.313" stroke="none"/>
              <ellipse cx="21.287" cy="36.313" rx="20.787" ry="35.813" fill="none"/>
            </g>
            <path id="Path_10387" data-name="Path 10387" d="M3003.909,1476s-2.336-10.9,9.537-12.846" transform="translate(-2978.105 -1430.969)" fill="none" stroke="#101010" stroke-width="1"/>
            <path id="Path_10388" data-name="Path 10388" d="M0,4.572S1.25.824,6.274,0" transform="translate(44.368 31.276) rotate(73)" fill="none" stroke="#101010" stroke-width="1"/>
          </g>
        </g>
        <path id="Path_10389" data-name="Path 10389" d="M3330.316,1305.861l109.9,63.665V1312.5s-18.388-5.659-35.493,0-37.631-6.638-37.631-6.638-13.932-9.784-23.126-9.784S3330.316,1305.861,3330.316,1305.861Z" transform="translate(-1794.709 -126.216)" fill="#fff" stroke="#000" stroke-width="1"/>
        <path id="Path_10390" data-name="Path 10390" d="M3418.087,1310.781l17.533-8.98v55.163l-16.914,11.413-.645-.387v-.687Z" transform="translate(-1772.582 -124.772)" fill="#fff" stroke="#000" stroke-width="1"/>
        <path id="Path_10402" data-name="Path 10402" d="M3508.571,1218.125" transform="translate(-1749.757 -145.874)" fill="none" stroke="#707070" stroke-width="1"/>
        <g id="Ellipse_12" data-name="Ellipse 12" transform="translate(1034 1284)" fill="#fff" stroke="#000" stroke-width="1">
          <circle cx="14.5" cy="14.5" r="14.5" stroke="none"/>
          <circle cx="14.5" cy="14.5" r="14" fill="none"/>
        </g>
        <g id="Group_543" data-name="Group 543" transform="translate(1513.589 889.964)">
          <path id="Path_9460" data-name="Path 9460" d="M235.02,389.66c-5.345,0-9.678,6.731-9.678,15.036H244.7C244.7,396.391,240.366,389.66,235.02,389.66Z" transform="translate(12.717 19.506)" fill="#82c748" stroke="#000" stroke-width="1"/>
          <rect id="Rectangle_301" data-name="Rectangle 301" width="7.725" height="2.956" transform="translate(238.84 409.421) rotate(-35.389)" fill="#82c748" stroke="#000" stroke-width="1"/>
          <path id="Path_9461" data-name="Path 9461" d="M241.546,402.086c9.733-7.465,12.068-20.761,5.213-29.7l-35.245,27.03C218.368,408.354,231.815,409.551,241.546,402.086Z" transform="translate(0.208 3.88)" fill="#82c748" stroke="#000" stroke-width="1"/>
          <g id="Group_542" data-name="Group 542" transform="translate(211.285 368.099)">
            <path id="Path_9462" data-name="Path 9462" d="M243.972,377.078l1.84-1.457-31.5-7.5V368.1l-.019.015-.061-.015-.971.771-.842.615-1.129,32.4.065,0,1.827-1.337.848-24.317,3.541-1.1,10.649,14.021.722-.549-10.579-13.929,1.529-3.326Zm-29.9-2.286.141-4.074,2.091,2.754Zm2.914-1.926-2.053-2.7,3.627.863Z" transform="translate(-211.285 -368.099)" fill="#fff" stroke="#000" stroke-width="1"/>
          </g>
        </g>
        <g id="Group_3272" data-name="Group 3272" transform="translate(-1580.916 -2129.486)">
          <g id="Group_3230" data-name="Group 3230" transform="translate(3143.916 3570.67)">
            <path id="Path_10410" data-name="Path 10410" d="M185.38,720.2,155.621,702.9l-.047-16.521,29.759,17.294Z" transform="translate(-155.574 -686.381)" fill="#fff" stroke="#000" stroke-width="1"/>
          </g>
          <g id="Group_3231" data-name="Group 3231" transform="translate(3143.916 3562.368)">
            <path id="Path_10411" data-name="Path 10411" d="M185.334,679.291,155.574,662l14.378-8.3,29.759,17.294Z" transform="translate(-155.574 -653.695)" fill="#fff" stroke="#000" stroke-width="1"/>
          </g>
          <g id="Group_3232" data-name="Group 3232" transform="translate(3158.247 3545.847)">
            <path id="Path_10412" data-name="Path 10412" d="M241.807,622.46l-29.759-17.294L212,588.644l29.759,17.295Z" transform="translate(-212.001 -588.644)" fill="#fff" stroke="#000" stroke-width="1"/>
          </g>
          <g id="Group_3233" data-name="Group 3233" transform="translate(3158.247 3537.546)">
            <path id="Path_10413" data-name="Path 10413" d="M241.76,581.557,212,564.262l14.378-8.3,29.759,17.294Z" transform="translate(-212.001 -555.961)" fill="#fff" stroke="#000" stroke-width="1"/>
          </g>
          <g id="Group_3234" data-name="Group 3234" transform="translate(3172.578 3521.025)">
            <path id="Path_10414" data-name="Path 10414" d="M298.234,524.726l-29.759-17.294-.047-16.521L298.187,508.2Z" transform="translate(-268.428 -490.911)" fill="#fff" stroke="#000" stroke-width="1"/>
          </g>
          <g id="Group_3235" data-name="Group 3235" transform="translate(3172.578 3512.723)">
            <path id="Path_10415" data-name="Path 10415" d="M298.187,483.821l-29.759-17.294,14.378-8.3,29.759,17.295Z" transform="translate(-268.428 -458.225)" fill="#fff" stroke="#000" stroke-width="1"/>
          </g>
          <g id="Group_3236" data-name="Group 3236" transform="translate(3186.909 3496.202)">
            <path id="Path_10416" data-name="Path 10416" d="M354.661,426.991,324.9,409.7l-.047-16.521,29.759,17.294Z" transform="translate(-324.854 -393.175)" fill="#fff" stroke="#000" stroke-width="1"/>
          </g>
          <g id="Group_3237" data-name="Group 3237" transform="translate(3186.909 3487.901)">
            <path id="Path_10417" data-name="Path 10417" d="M354.614,386.086l-29.759-17.294,14.378-8.3,29.76,17.294Z" transform="translate(-324.854 -360.491)" fill="#fff" stroke="#000" stroke-width="1"/>
          </g>
          <g id="Group_3238" data-name="Group 3238" transform="translate(3173.675 3480.373)">
            <path id="Path_10418" data-name="Path 10418" d="M344.45,330.849l.047,16.521-.047,98.9-71.656,8.689-.047-16.521,14.378-8.3-.047-16.521,14.378-8.3L301.41,388.8l14.378-8.3-.047-16.522,14.378-8.3-.047-16.521Z" transform="translate(-272.747 -330.849)" fill="#fff" stroke="#000" stroke-width="1"/>
          </g>
          <g id="Group_3239" data-name="Group 3239" transform="translate(3201.24 3471.379)">
            <path id="Path_10419" data-name="Path 10419" d="M411.088,329.256l-29.76-17.294-.047-16.521,29.759,17.294Z" transform="translate(-381.281 -295.44)" fill="#fff" stroke="#000" stroke-width="1"/>
          </g>
          <g id="Group_3240" data-name="Group 3240" transform="translate(3201.24 3463.078)">
            <path id="Path_10420" data-name="Path 10420" d="M411.041,288.351l-29.759-17.294,14.378-8.3,29.759,17.294Z" transform="translate(-381.281 -262.755)" fill="#fff" stroke="#000" stroke-width="1"/>
          </g>
          <g id="Group_3271" data-name="Group 3271" transform="translate(3149.211 3438)">
            <g id="Group_3242" data-name="Group 3242" transform="translate(0 127.255)">
              <path id="Path_10422" data-name="Path 10422" d="M195.391,685.667l-3.968-2.306,14.378-8.3,3.968,2.306Z" transform="translate(-191.423 -675.06)" fill="#82c748"/>
            </g>
            <g id="Group_3243" data-name="Group 3243" transform="translate(0 135.556)">
              <path id="Path_10423" data-name="Path 10423" d="M195.444,731.065l-3.968-2.306-.053-21.015,3.968,2.306Z" transform="translate(-191.423 -707.744)" fill="#82c748"/>
            </g>
            <g id="Group_3244" data-name="Group 3244" transform="translate(14.331 102.432)">
              <path id="Path_10424" data-name="Path 10424" d="M251.817,587.932l-3.968-2.306,14.378-8.3,3.968,2.306Z" transform="translate(-247.85 -577.324)" fill="#82c748"/>
            </g>
            <g id="Group_3245" data-name="Group 3245" transform="translate(14.331 110.733)">
              <path id="Path_10425" data-name="Path 10425" d="M251.864,628.837l-3.968-2.306-.047-16.521,3.968,2.306Z" transform="translate(-247.85 -610.01)" fill="#82c748"/>
            </g>
            <g id="Group_3246" data-name="Group 3246" transform="translate(28.662 77.61)">
              <path id="Path_10426" data-name="Path 10426" d="M308.244,490.2l-3.968-2.306,14.378-8.3,3.968,2.306Z" transform="translate(-304.276 -479.59)" fill="#82c748"/>
            </g>
            <g id="Group_3247" data-name="Group 3247" transform="translate(28.662 85.911)">
              <path id="Path_10427" data-name="Path 10427" d="M308.291,531.1l-3.968-2.306-.047-16.521,3.968,2.306Z" transform="translate(-304.276 -512.275)" fill="#82c748"/>
            </g>
            <g id="Group_3248" data-name="Group 3248" transform="translate(42.993 61.088)">
              <path id="Path_10428" data-name="Path 10428" d="M364.718,433.366l-3.968-2.306-.047-16.521,3.968,2.306Z" transform="translate(-360.703 -414.539)" fill="#82c748"/>
            </g>
            <g id="Group_3249" data-name="Group 3249" transform="translate(42.993 52.787)">
              <path id="Path_10429" data-name="Path 10429" d="M364.671,392.462l-3.968-2.306,14.378-8.3,3.968,2.306Z" transform="translate(-360.703 -381.855)" fill="#82c748"/>
            </g>
            <g id="Group_3250" data-name="Group 3250" transform="translate(57.324 27.965)">
              <path id="Path_10430" data-name="Path 10430" d="M421.1,294.727l-3.968-2.306,14.378-8.3,3.968,2.306Z" transform="translate(-417.13 -284.12)" fill="#82c748"/>
            </g>
            <g id="Group_3251" data-name="Group 3251" transform="translate(3.968 15.727)">
              <path id="Path_10431" data-name="Path 10431" d="M282.707,235.934l.048,16.737-14.3,8.347v16.489l-14.331,8.333v16.495l-14.331,8.328v16.494l-14.331,8.328V351.98l-14.331,8.329v16.5l-4.032,2.278-.053-21.015,14.378-8.3-.047-16.521,14.378-8.3-.047-16.521,14.378-8.3-.047-16.521,14.378-8.3-.047-16.521,14.378-8.3-.035-12.238Z" transform="translate(-207.046 -235.934)" fill="#82c748"/>
            </g>
            <g id="Group_3252" data-name="Group 3252" transform="translate(57.324 36.266)">
              <path id="Path_10432" data-name="Path 10432" d="M421.145,335.631l-3.968-2.306L417.13,316.8l3.968,2.306Z" transform="translate(-417.13 -316.804)" fill="#82c748"/>
            </g>
            <g id="Group_3253" data-name="Group 3253" transform="translate(73.705 0)">
              <path id="Path_10433" data-name="Path 10433" d="M481.626,176.319l3.968-2.306,7.327,18.919-3.968,2.306Z" transform="translate(-481.626 -174.013)" fill="#82c748"/>
            </g>
            <path id="Path_10434" data-name="Path 10434" d="M467.192,202.011l-7.327-18.919L452.456,193.5l5.371,3.1.035,12.146,3.968,2.306L461.8,198.9Z" transform="translate(-386.16 -180.786)" fill="#82c748"/>
          </g>
          <path id="Path_10474" data-name="Path 10474" d="M3261.274,4093.513" transform="translate(-87.552 -489.027)" fill="none" stroke="#707070" stroke-width="1"/>
        </g>
        <g id="Path_10872" data-name="Path 10872" transform="translate(1344 1230.782)" fill="#fff">
          <path d="M 138 191.8169097900391 C 128.6604309082031 191.8169097900391 119.3269271850586 191.1613006591797 110.2587890625 189.8683013916016 C 101.4222106933594 188.6083374023438 92.73068237304688 186.7284088134766 84.425537109375 184.2807006835938 C 76.27292633056641 181.8779449462891 68.41021728515625 178.9042358398438 61.05585861206055 175.4421539306641 C 53.77385711669922 172.0141906738281 46.9268913269043 168.077880859375 40.70510864257813 163.7425231933594 C 34.486572265625 159.4094543457031 28.84167861938477 154.6423034667969 23.92721366882324 149.5735168457031 C 18.96914291381836 144.4597625732422 14.71135711669922 138.9940490722656 11.27214241027832 133.3282318115234 C 7.772107124328613 127.5621643066406 5.084285736083984 121.5291595458984 3.28342866897583 115.396842956543 C 1.436464309692383 109.1076965332031 0.5 102.6349792480469 0.5 96.158447265625 C 0.5 89.68191528320313 1.436464309692383 83.20919799804688 3.28342866897583 76.92005157470703 C 5.084285736083984 70.78773498535156 7.772107124328613 64.75473022460938 11.27214241027832 58.98869705200195 C 14.71135711669922 53.32284164428711 18.96914291381836 47.85716247558594 23.92721366882324 42.74337768554688 C 28.84167861938477 37.67459106445313 34.486572265625 32.9074821472168 40.70510864257813 28.57437515258789 C 46.9268913269043 24.23905372619629 53.77385711669922 20.30273246765137 61.05585861206055 16.87473297119141 C 68.41021728515625 13.41269683837891 76.27292633056641 10.43898296356201 84.425537109375 8.036232948303223 C 92.73068237304688 5.588518619537354 101.4222106933594 3.708590030670166 110.2587890625 2.448625802993774 C 119.3269271850586 1.155625820159912 128.6604309082031 0.5000187158584595 138 0.5000187158584595 C 147.339599609375 0.5000187158584595 156.6731109619141 1.155625820159912 165.7412567138672 2.448625802993774 C 174.5777893066406 3.708590030670166 183.2693634033203 5.588518619537354 191.5744934082031 8.036232948303223 C 199.7271118164063 10.43898296356201 207.5897827148438 13.41269683837891 214.9441833496094 16.87473297119141 C 222.2261352539063 20.30273246765137 229.0731048583984 24.23905372619629 235.2948913574219 28.57437515258789 C 241.513427734375 32.9074821472168 247.1583251953125 37.67459106445313 252.0727844238281 42.74337768554688 C 257.0308532714844 47.85716247558594 261.2886352539063 53.32284164428711 264.7278442382813 58.98869705200195 C 268.2279357910156 64.75473022460938 270.9157104492188 70.78773498535156 272.7166137695313 76.92005157470703 C 274.5635375976563 83.20919799804688 275.5 89.68191528320313 275.5 96.158447265625 C 275.5 102.6349792480469 274.5635375976563 109.1076965332031 272.7166137695313 115.396842956543 C 270.9157104492188 121.5291595458984 268.2279357910156 127.5621643066406 264.7278442382813 133.3282318115234 C 261.2886352539063 138.9940490722656 257.0308532714844 144.4597625732422 252.0727844238281 149.5735168457031 C 247.1583251953125 154.6423034667969 241.513427734375 159.4094543457031 235.2948913574219 163.7425231933594 C 229.0731048583984 168.077880859375 222.2261352539063 172.0141906738281 214.9441833496094 175.4421539306641 C 207.5897827148438 178.9042358398438 199.7271118164063 181.8779449462891 191.5744934082031 184.2807006835938 C 183.2693634033203 186.7284088134766 174.5777893066406 188.6083374023438 165.7412567138672 189.8683013916016 C 156.6731109619141 191.1613006591797 147.339599609375 191.8169097900391 138 191.8169097900391 Z" stroke="none"/>
          <path d="M 138 0.9999847412109375 C 128.6839294433594 0.9999847412109375 119.3741760253906 1.653915405273438 110.3293151855469 2.943557739257813 C 101.5166473388672 4.200119018554688 92.84889221191406 6.074905395507813 84.56686401367188 8.51580810546875 C 76.438720703125 10.91134643554688 68.60011291503906 13.87591552734375 61.26878356933594 17.32708740234375 C 54.01217651367188 20.74311828613281 47.18974304199219 24.66529846191406 40.990966796875 28.98458862304688 C 34.79867553710938 33.29937744140625 29.17835998535156 38.04562377929688 24.28617858886719 43.09141540527344 C 19.35409545898438 48.1783447265625 15.11935424804688 53.61422729492188 11.6995849609375 59.24812316894531 C 8.22198486328125 64.97712707519531 5.55181884765625 70.97023010253906 3.763153076171875 77.06094360351563 C 1.929656982421875 83.30430603027344 1 89.72962951660156 1 96.158447265625 C 1 102.5872650146484 1.929656982421875 109.0125885009766 3.763153076171875 115.2559509277344 C 5.55181884765625 121.3466644287109 8.22198486328125 127.3397674560547 11.6995849609375 133.0687713623047 C 15.11935424804688 138.7026214599609 19.35409545898438 144.1385192871094 24.28617858886719 149.2254486083984 C 29.17835998535156 154.2712707519531 34.79867553710938 159.0174865722656 40.990966796875 163.332275390625 C 47.18971252441406 167.6515960693359 54.01217651367188 171.57373046875 61.26878356933594 174.9897766113281 C 68.60011291503906 178.4409790039063 76.438720703125 181.405517578125 84.56686401367188 183.8010559082031 C 92.84889221191406 186.241943359375 101.5166473388672 188.1167297363281 110.3293151855469 189.3733062744141 C 119.3741760253906 190.6629486083984 128.6839294433594 191.3168792724609 138 191.3168792724609 C 147.3160705566406 191.3168792724609 156.6258239746094 190.6629486083984 165.670654296875 189.3733062744141 C 174.4833679199219 188.1167297363281 183.1510620117188 186.241943359375 191.43310546875 183.8010559082031 C 199.561279296875 181.405517578125 207.39990234375 178.4409790039063 214.7311706542969 174.9897766113281 C 221.98779296875 171.57373046875 228.8102416992188 167.6515960693359 235.009033203125 163.332275390625 C 241.2013244628906 159.0174865722656 246.8216094970703 154.2712707519531 251.7138214111328 149.2254486083984 C 256.6458435058594 144.1385192871094 260.880615234375 138.7026214599609 264.3004150390625 133.0687713623047 C 267.7780151367188 127.3397674560547 270.4481811523438 121.3466644287109 272.2368469238281 115.2559509277344 C 274.0703430175781 109.0125885009766 275 102.5872650146484 275 96.158447265625 C 275 89.72962951660156 274.0703430175781 83.30430603027344 272.2368469238281 77.06094360351563 C 270.4481811523438 70.97023010253906 267.7780151367188 64.97712707519531 264.3004150390625 59.24812316894531 C 260.880615234375 53.61422729492188 256.6458435058594 48.1783447265625 251.7138214111328 43.09141540527344 C 246.8216094970703 38.04562377929688 241.2013244628906 33.29937744140625 235.009033203125 28.98458862304688 C 228.8102416992188 24.66529846191406 221.98779296875 20.74311828613281 214.7311706542969 17.32708740234375 C 207.39990234375 13.87591552734375 199.561279296875 10.91134643554688 191.43310546875 8.51580810546875 C 183.1510620117188 6.074905395507813 174.4833679199219 4.200119018554688 165.670654296875 2.943557739257813 C 156.6258239746094 1.653915405273438 147.3160400390625 0.9999847412109375 138 0.9999847412109375 M 138 -1.52587890625e-05 C 214.2152862548828 -1.52587890625e-05 276 43.05158996582031 276 96.158447265625 C 276 149.2653045654297 214.2152862548828 192.3168792724609 138 192.3168792724609 C 61.78468322753906 192.3168792724609 0 149.2653045654297 0 96.158447265625 C 0 43.05158996582031 61.78468322753906 -1.52587890625e-05 138 -1.52587890625e-05 Z" stroke="none" fill="#000"/>
        </g>
        <g id="Path_10502" data-name="Path 10502" transform="translate(1344 1229)" fill="#fff">
          <path d="M 138 164.5 C 128.6571044921875 164.5 119.3202819824219 163.9373168945313 110.248893737793 162.8276062011719 C 101.4092864990234 161.7462158203125 92.71471405029297 160.1327514648438 84.40675354003906 158.0319976806641 C 76.25160980224609 155.9698944091797 68.38660430908203 153.4178161621094 61.03014373779297 150.4466857910156 C 53.74667739868164 147.5050048828125 46.89849853515625 144.1272125244141 40.67582321166992 140.4071502685547 C 34.45753479003906 136.6897125244141 28.81321334838867 132.6001434326172 23.89957237243652 128.2521057128906 C 18.94425010681152 123.8671417236328 14.68932151794434 119.181037902832 11.25289249420166 114.3239288330078 C 7.757928371429443 109.3840713500977 5.074357032775879 104.2164993286133 3.276714324951172 98.96471405029297 C 1.434214234352112 93.58181762695313 0.5 88.04232025146484 0.5 82.5 C 0.5 76.95767974853516 1.434214234352112 71.41818237304688 3.276714324951172 66.03528594970703 C 5.074357032775879 60.78350067138672 7.757928371429443 55.61592864990234 11.25289249420166 50.67607116699219 C 14.68932151794434 45.81896591186523 18.94425010681152 41.13285827636719 23.89957237243652 36.74789428710938 C 28.81321334838867 32.39985656738281 34.45753479003906 28.3102855682373 40.67582321166992 24.59285736083984 C 46.89849853515625 20.8727855682373 53.74667739868164 17.4950008392334 61.03014373779297 14.55332183837891 C 68.38660430908203 11.58217811584473 76.25160980224609 9.030107498168945 84.40675354003906 6.967999935150146 C 92.71471405029297 4.867249965667725 101.4092864990234 3.253785610198975 110.248893737793 2.172392845153809 C 119.3202819824219 1.062678575515747 128.6571044921875 0.5 138 0.5 C 147.3428955078125 0.5 156.6797180175781 1.062678575515747 165.7511138916016 2.172392845153809 C 174.5907440185547 3.253785610198975 183.2852783203125 4.867249965667725 191.5932464599609 6.967999935150146 C 199.7483978271484 9.030107498168945 207.6134338378906 11.58217811584473 214.9698944091797 14.55332183837891 C 222.2533264160156 17.4950008392334 229.1015014648438 20.8727855682373 235.3241729736328 24.59285736083984 C 241.5424652099609 28.3102855682373 247.1868286132813 32.39985656738281 252.1004333496094 36.74789428710938 C 257.0557556152344 41.13285827636719 261.3106994628906 45.81896591186523 264.7471008300781 50.67607116699219 C 268.2420654296875 55.61592864990234 270.9256286621094 60.78350067138672 272.7232971191406 66.03528594970703 C 274.5657958984375 71.41818237304688 275.5 76.95767974853516 275.5 82.5 C 275.5 88.04232025146484 274.5657958984375 93.58181762695313 272.7232971191406 98.96471405029297 C 270.9256286621094 104.2164993286133 268.2420654296875 109.3840713500977 264.7471008300781 114.3239288330078 C 261.3106994628906 119.181037902832 257.0557556152344 123.8671417236328 252.1004333496094 128.2521057128906 C 247.1868286132813 132.6001434326172 241.5424652099609 136.6897125244141 235.3241729736328 140.4071502685547 C 229.1015014648438 144.1272125244141 222.2533264160156 147.5050048828125 214.9698944091797 150.4466857910156 C 207.6134338378906 153.4178161621094 199.7483978271484 155.9698944091797 191.5932464599609 158.0319976806641 C 183.2852783203125 160.1327514648438 174.5907440185547 161.7462158203125 165.7511138916016 162.8276062011719 C 156.6797180175781 163.9373168945313 147.3428955078125 164.5 138 164.5 Z" stroke="none"/>
          <path d="M 138 1 C 128.6773223876953 1 119.3609313964844 1.561431884765625 110.3096008300781 2.668716430664063 C 101.4907531738281 3.747543334960938 92.81700134277344 5.357147216796875 84.52932739257813 7.452743530273438 C 76.39610290527344 9.509292602539063 68.5528564453125 12.05424499511719 61.21736145019531 15.01692199707031 C 53.95777893066406 17.94895935058594 47.1329345703125 21.31513977050781 40.93238830566406 25.02200317382813 C 34.7406005859375 28.72360229492188 29.12142944335938 32.79475402832031 24.23092651367188 37.12236022949219 C 19.30438232421875 41.48181915283203 15.07528686523438 46.13910675048828 11.66107177734375 50.96485900878906 C 8.19366455078125 55.86571502685547 5.53192138671875 60.99060821533203 3.749786376953125 66.19721221923828 C 1.925140380859375 71.52785491943359 1 77.01289367675781 1 82.5 C 1 87.98710632324219 1.925140380859375 93.47214508056641 3.749786376953125 98.80278778076172 C 5.53192138671875 104.009391784668 8.19366455078125 109.1342849731445 11.66107177734375 114.0351409912109 C 15.07528686523438 118.8608932495117 19.30438232421875 123.5181732177734 24.23092651367188 127.8776397705078 C 29.12142944335938 132.2052459716797 34.7406005859375 136.2763977050781 40.93238830566406 139.9779968261719 C 47.1329345703125 143.6848602294922 53.95777893066406 147.0510406494141 61.21736145019531 149.9830780029297 C 68.5528564453125 152.9457550048828 76.39610290527344 155.4907073974609 84.52932739257813 157.5472564697266 C 92.81700134277344 159.6428527832031 101.4907531738281 161.2524719238281 110.3096008300781 162.3312835693359 C 119.3609313964844 163.4385681152344 128.6773223876953 164 138 164 C 147.3226776123047 164 156.6390686035156 163.4385681152344 165.6903991699219 162.3312835693359 C 174.5092468261719 161.2524719238281 183.1829986572266 159.6428527832031 191.4706726074219 157.5472564697266 C 199.6038513183594 155.4907073974609 207.4471435546875 152.9457550048828 214.7826080322266 149.9830780029297 C 222.0421752929688 147.0510406494141 228.8670349121094 143.6848602294922 235.0676116943359 139.9779968261719 C 241.2593994140625 136.2763977050781 246.8785705566406 132.2052459716797 251.7690734863281 127.8776397705078 C 256.6956176757813 123.5181732177734 260.9247131347656 118.8608932495117 264.3389282226563 114.0351409912109 C 267.8063354492188 109.1342849731445 270.4680786132813 104.009391784668 272.2502136230469 98.80278778076172 C 274.0748596191406 93.47214508056641 275 87.98710632324219 275 82.5 C 275 77.01289367675781 274.0748596191406 71.52785491943359 272.2502136230469 66.19721221923828 C 270.4680786132813 60.99060821533203 267.8063354492188 55.86571502685547 264.3389282226563 50.96485900878906 C 260.9247131347656 46.13910675048828 256.6956176757813 41.48181915283203 251.7690734863281 37.12236022949219 C 246.8785705566406 32.79475402832031 241.2593994140625 28.72360229492188 235.0676116943359 25.02200317382813 C 228.8670349121094 21.31513977050781 222.0421752929688 17.94895935058594 214.7826080322266 15.01692199707031 C 207.4471435546875 12.05424499511719 199.6038513183594 9.509292602539063 191.4706726074219 7.452743530273438 C 183.1829986572266 5.357147216796875 174.5092468261719 3.747543334960938 165.6903991699219 2.668716430664063 C 156.6390686035156 1.561431884765625 147.3226776123047 1 138 1 M 138 0 C 214.2152862548828 0 276 36.93649291992188 276 82.5 C 276 128.0635070800781 214.2152862548828 165 138 165 C 61.78468322753906 165 0 128.0635070800781 0 82.5 C 0 36.93649291992188 61.78468322753906 0 138 0 Z" stroke="none" fill="#000"/>
        </g>
        <ellipse id="Ellipse_32" data-name="Ellipse 32" cx="39" cy="42" rx="39" ry="42" transform="translate(1439.729 1186.215)" fill="#fff"/>
        <g id="Repeat_Grid_6" data-name="Repeat Grid 6" transform="translate(1400.251 1158.819)" clip-path="url(#clip-path-3)">
          <g transform="translate(-1413.251 -1409.819)">
            <g id="Group_1242" data-name="Group 1242" transform="translate(1414.158 1453.852) rotate(-22)">
              <path id="Path_3630" data-name="Path 3630" d="M0,.136,3.058,19.124l3.2-7.558L9.927,28.341l4.316-17.083,2.274,9.648L22.312,0S18.028,3.572,10.185,3.092A19.313,19.313,0,0,1,0,.136Z" transform="matrix(0.914, 0.407, -0.407, 0.914, 25.58, 114.036)" fill="url(#linear-gradient)"/>
              <path id="Path_3838" data-name="Path 3838" d="M0,.066,1.467,9.174,3,5.548,4.763,13.6l2.07-8.2,1.091,4.628L10.7,0A14.71,14.71,0,0,1,5.01.518C3.487.425,2.024,1.279,0,.066Z" transform="matrix(0.914, 0.407, -0.407, 0.914, 29.38, 118.424)" fill="url(#linear-gradient-2)"/>
              <path id="Path_3631" data-name="Path 3631" d="M0,8.527A56.459,56.459,0,0,1,18.92,2.653C26.591,1.8,37.29,4.272,43.938,8.527c10.614,6.8,14.813,14.866,16.642,25.638a43.677,43.677,0,0,1,.595,13.373s2.644-13.594-2.8-25.855c-1.3-2.933-2.445-5.854-5.072-8.785A39.935,39.935,0,0,0,33.774.971,49.662,49.662,0,0,0,21.643.056C14.949.443,6.611,2.581,0,8.527Z" transform="matrix(0.914, 0.407, -0.407, 0.914, 58.401, 5.029)" fill="url(#linear-gradient-3)"/>
              <path id="Path_3629" data-name="Path 3629" d="M22.725,46.749s8.346-18.972-1.487-16.84S18.63,47.579,35.89,32.82c0,0,8.089-9.046,0-10.1s.1,22.512,17.638,14.318c0,0,3.194-2.027,1.555-5.14s-8.6-.88-8.6,14.853-8.327,29.072-15.21,21.534a4.27,4.27,0,0,1,5.613-6.358c5.629,3.2,10.92,15.081,3.372,20.288,0,0-10.326,4.658-16.389,1.735s-5.9-7.812-7.866-11.692S-10.91,45.1,5.64,16.091C14.793.051,38.609-4.338,54.681,4.464,67.2,11.321,73.944,21.526,74.067,40.742a35.632,35.632,0,0,1-3.408,15.033c-4.91,10.968-14.073,19.2-15.484,25.552-.953,4.291.085,12.289-6.714,16.409-6.584,3.994-21.1,3.839-24.586-.842,0,0-3.444-4.234.469-6.816,1.961-2.216,11.7-4.6,21.718-.572,2.235.881,6.3,3.613,6.858,6.858.643,3.645-.4,9.151-9.9,11.464-3.642.892-16.266,1.407-18.677-.552-3.127-2.437-6.916-14.293,17.8-8.416,2.086.5,9.769,2.756,10.112,6.506a7.858,7.858,0,0,1-2.33,6.759A16.538,16.538,0,0,1,40.263,116a30.145,30.145,0,0,1-8.585-.615,14.721,14.721,0,0,1-3.325-1.344c-3.344-1.714-6.509-4.958,7.37-3.316,0,0,4.452.823,6.418,2.462" transform="matrix(0.914, 0.407, -0.407, 0.914, 47.245, 0)" fill="none" stroke="#000" stroke-miterlimit="10" stroke-width="1"/>
            </g>
          </g>
        </g>
      </g>
    </g>
  </g>
</svg>
