<svg xmlns="http://www.w3.org/2000/svg" xmlns:xlink="http://www.w3.org/1999/xlink" width="1011.046" height="922.722" viewBox="0 0 1011.046 922.722">
  <defs>
    <linearGradient id="linear-gradient" x1="0.5" x2="0.5" y2="1" gradientUnits="objectBoundingBox">
      <stop offset="0" stop-color="#92cf4b"/>
      <stop offset="1" stop-color="#6ebd44"/>
    </linearGradient>
    <linearGradient id="linear-gradient-2" x1="0.5" x2="0.5" y2="1" gradientUnits="objectBoundingBox">
      <stop offset="0" stop-color="#6ebd44"/>
      <stop offset="1" stop-color="#92cf4b"/>
    </linearGradient>
    <linearGradient id="linear-gradient-3" x1="0.5" x2="0.5" y2="1" gradientUnits="objectBoundingBox">
      <stop offset="0" stop-color="#6ebd44"/>
      <stop offset="0" stop-color="#7cc447"/>
      <stop offset="1" stop-color="#92cf4b"/>
    </linearGradient>
  </defs>
  <g id="Group_1437" data-name="Group 1437" transform="translate(-960.366 -122.152)">
    <path id="Path_4522" data-name="Path 4522" d="M635.944,435.7l5.8,6.712,8.815-.986-4.585,7.59,3.657,8.082-8.639-2.011-6.551,5.973-.755-8.839-7.706-4.384,8.171-3.452Z" transform="translate(601.728 -180.725)" fill="#303030"/>
    <path id="Path_4523" data-name="Path 4523" d="M1734.4,752.153l.757,5.175,4.69,2.317-4.69,2.317-.749,5.18-3.654-3.748-5.151.886,2.431-4.629-2.437-4.628,5.155.88Z" transform="translate(125.463 -443.779)" fill="#303030"/>
    <path id="Path_4525" data-name="Path 4525" d="M1172.836,686.384l.757,5.175,4.69,2.317-4.684,2.311-.753,5.18-3.654-3.748-5.155.891,2.431-4.634-2.437-4.623,5.155.877Z" transform="translate(358.5 -294.048)" fill="#303030"/>
    <path id="Path_4526" data-name="Path 4526" d="M715.377,1104.69l.76,5.18,4.687,2.312-4.687,2.312-.752,5.18-3.654-3.743-5.151.885,2.428-4.629-2.434-4.634,5.158.886Z" transform="translate(477.076 -517.666)" fill="#303030"/>
    <path id="Path_4527" data-name="Path 4527" d="M1254.7,289.258l1.278,8.773,7.954,3.927-7.945,3.921-1.273,8.778-6.2-6.344-8.734,1.5,4.119-7.854-4.127-7.848,8.736,1.493Z" transform="translate(324.26 -114.525)" fill="#79c346"/>
    <path id="Path_4529" data-name="Path 4529" d="M305.036,733.195l1.281,8.773,7.951,3.921-7.945,3.927-1.27,8.778-6.2-6.344-8.742,1.5,4.124-7.854-4.133-7.848,8.745,1.493Z" transform="translate(753.562 -315.209)" fill="#79c346"/>
    <path id="Path_4530" data-name="Path 4530" d="M677.891,1505.21l1.278,8.773,7.954,3.926-7.948,3.921-1.267,8.778-6.2-6.344-8.739,1.5,4.121-7.852-4.13-7.854,8.745,1.5Z" transform="translate(585.01 -664.202)" fill="#79c346"/>
    <path id="Path_4531" data-name="Path 4531" d="M448.437,1593.26l1.284,8.773,7.954,3.921-7.948,3.927-1.276,8.773-6.188-6.339-8.742,1.5,4.122-7.854-4.13-7.843,8.743,1.487Z" transform="translate(688.735 -704.006)" fill="#303030"/>
    <path id="Path_4532" data-name="Path 4532" d="M1730.567,1300.61l1.281,8.772,7.951,3.921-7.945,3.927-1.271,8.778-6.2-6.35-8.736,1.51,4.122-7.854-4.131-7.848,8.736,1.493Z" transform="translate(-80.995 -473.082)" fill="#303030"/>
    <path id="Path_4533" data-name="Path 4533" d="M1526.226,1626.89l1.284,8.772,7.954,3.927-7.951,3.921-1.27,8.778-6.192-6.344-8.742,1.5,4.125-7.854-4.133-7.848,8.742,1.5Z" transform="translate(80.967 -975.099)" fill="#303030"/>
    <path id="Path_4534" data-name="Path 4534" d="M1691.266,922.95l1.281,8.773,7.951,3.921-7.945,3.927-1.27,8.778-6.2-6.344-8.74,1.5,4.128-7.848-4.133-7.848,8.739,1.493Z" transform="translate(126.908 -400.989)" fill="#79c346"/>
    <path id="Path_4537" data-name="Path 4537" d="M758.155,640.5c-4.629,2.312-9.254,4.628-2.315,2.312" transform="translate(544.624 -273.306)" fill="none" stroke="#000" stroke-linecap="round" stroke-linejoin="round" stroke-width="4.222"/>
    <path id="Path_4538" data-name="Path 4538" d="M625.961,862.369c-2.312,2.317-2.312,0-2.312-2.312" transform="translate(602.782 -372.557)" fill="none" stroke="#000" stroke-linecap="round" stroke-linejoin="round" stroke-width="4.222"/>
    <path id="Path_4539" data-name="Path 4539" d="M406.1,554.138c-4.626,0-2.315-2.311,0-2.311" transform="translate(702.332 -233.221)" fill="none" stroke="#000" stroke-linecap="round" stroke-linejoin="round" stroke-width="4.222"/>
    <path id="Path_4540" data-name="Path 4540" d="M788.316,332.667c0-2.317,0-2.317,2.312-4.629" transform="translate(528.343 -132.056)" fill="none" stroke="#000" stroke-linecap="round" stroke-linejoin="round" stroke-width="4.222"/>
    <path id="Path_4541" data-name="Path 4541" d="M1137.339,644.717c-2.312,4.628-2.312,2.317,0,0" transform="translate(371.349 -275.212)" fill="none" stroke="#000" stroke-linecap="round" stroke-linejoin="round" stroke-width="4.222"/>
    <path id="Path_4542" data-name="Path 4542" d="M1316.11,361.818h0" transform="translate(289.751 -147.326)" fill="none" stroke="#000" stroke-linecap="round" stroke-linejoin="round" stroke-width="4.222"/>
    <path id="Path_4543" data-name="Path 4543" d="M1810.12,425.157" transform="translate(66.432 -175.959)" fill="none" stroke="#18102b" stroke-linecap="round" stroke-linejoin="round" stroke-width="4.222"/>
    <path id="Path_4544" data-name="Path 4544" d="M1810.12,986.727" transform="translate(66.432 -429.819)" fill="none" stroke="#18102b" stroke-linecap="round" stroke-linejoin="round" stroke-width="4.222"/>
    <path id="Path_4545" data-name="Path 4545" d="M1645.45,1071.18v2.311" transform="translate(69.092 -533.75)" fill="none" stroke="#000" stroke-linecap="round" stroke-linejoin="round" stroke-width="4.222"/>
    <path id="Path_4546" data-name="Path 4546" d="M661.326,1379.853v-2.311" transform="translate(585.75 -606.489)" fill="none" stroke="#000" stroke-linecap="round" stroke-linejoin="round" stroke-width="4.222"/>
    <path id="Path_4547" data-name="Path 4547" d="M1414.94,1196.278c-2.314,2.311-2.314,0-2.314-2.317" transform="translate(122.833 -664.87)" fill="none" stroke="#000" stroke-linecap="round" stroke-linejoin="round" stroke-width="4.222"/>
    <path id="Path_4548" data-name="Path 4548" d="M691.328,1213.8c-2.312,0-2.312,0,0-2.317" transform="translate(572.972 -531.421)" fill="none" stroke="#000" stroke-linecap="round" stroke-linejoin="round" stroke-width="4.222"/>
    <path id="Path_4549" data-name="Path 4549" d="M497.382,1480.75c-2.311,2.311-2.311,2.311-4.628,0" transform="translate(661.954 -653.145)" fill="none" stroke="#000" stroke-linecap="round" stroke-linejoin="round" stroke-width="4.222"/>
    <path id="Path_4550" data-name="Path 4550" d="M281.639,1162.153c2.311,0,4.626-2.311,6.94-2.311" transform="translate(757.39 -508.077)" fill="none" stroke="#000" stroke-linecap="round" stroke-linejoin="round" stroke-width="4.222"/>
    <path id="Path_4551" data-name="Path 4551" d="M458.977,1134.51" transform="translate(677.224 -496.625)" fill="none" stroke="#18102b" stroke-linecap="round" stroke-linejoin="round" stroke-width="4.222"/>
    <path id="Path_4552" data-name="Path 4552" d="M214.08,619.385h0" transform="translate(787.93 -263.761)" fill="none" stroke="#000" stroke-linecap="round" stroke-linejoin="round" stroke-width="4.222"/>
    <line id="Line_3" data-name="Line 3" transform="translate(960.366 586.985)" fill="none" stroke="#000" stroke-linecap="round" stroke-linejoin="round" stroke-width="4.222"/>
    <line id="Line_4" data-name="Line 4" y1="2.317" x2="2.314" transform="translate(1029.772 906.264)" fill="none" stroke="#000" stroke-linecap="round" stroke-linejoin="round" stroke-width="4.222"/>
    <line id="Line_5" data-name="Line 5" y1="2.317" x2="2.317" transform="translate(1284.267 1033.511)" fill="none" stroke="#18102b" stroke-linecap="round" stroke-linejoin="round" stroke-width="4.222"/>
    <line id="Line_6" data-name="Line 6" y1="2.312" transform="translate(1571.158 1040.451)" fill="none" stroke="#18102b" stroke-linecap="round" stroke-linejoin="round" stroke-width="4.222"/>
    <path id="Path_4553" data-name="Path 4553" d="M1404.78,1691.85" transform="translate(126.381 -889.944)" fill="none" stroke="#18102b" stroke-linecap="round" stroke-linejoin="round" stroke-width="4.222"/>
    <path id="Path_4554" data-name="Path 4554" d="M1687.67,1708.74c0,4.629,2.317,2.317,2.317,0" transform="translate(-1.502 -897.579)" fill="none" stroke="#000" stroke-linecap="round" stroke-linejoin="round" stroke-width="4.222"/>
    <path id="Path_4555" data-name="Path 4555" d="M1535.67,1337.586c2.317-2.311,4.629-2.311,6.94-4.623" transform="translate(67.211 -727.707)" fill="none" stroke="#000" stroke-linecap="round" stroke-linejoin="round" stroke-width="4.222"/>
    <line id="Line_7" data-name="Line 7" x1="2.315" transform="translate(1920.516 730.43)" fill="none" stroke="#18102b" stroke-linecap="round" stroke-linejoin="round" stroke-width="4.222"/>
    <path id="Path_4556" data-name="Path 4556" d="M1983.24,1041.62" transform="translate(-11.828 -454.634)" fill="none" stroke="#18102b" stroke-linecap="round" stroke-linejoin="round" stroke-width="4.222"/>
    <path id="Path_4557" data-name="Path 4557" d="M1909.558,796.718h-2.317" transform="translate(22.528 -343.925)" fill="none" stroke="#000" stroke-linecap="round" stroke-linejoin="round" stroke-width="4.222"/>
    <line id="Line_8" data-name="Line 8" y1="2.317" x2="2.315" transform="translate(1760.874 464.362)" fill="none" stroke="#000" stroke-linecap="round" stroke-linejoin="round" stroke-width="4.222"/>
    <line id="Line_9" data-name="Line 9" y1="2.312" x2="2.312" transform="translate(1728.487 216.803)" fill="none" stroke="#000" stroke-linecap="round" stroke-linejoin="round" stroke-width="4.222"/>
    <path id="Path_4558" data-name="Path 4558" d="M1392.12,729.16h0" transform="translate(255.392 -313.385)" fill="none" stroke="#000" stroke-linecap="round" stroke-linejoin="round" stroke-width="4.222"/>
    <path id="Path_4559" data-name="Path 4559" d="M1204.9,773.693c-2.317,0-2.317-2.312,0-2.312" transform="translate(340.812 -332.471)" fill="none" stroke="#000" stroke-linecap="round" stroke-linejoin="round" stroke-width="4.222"/>
    <path id="Path_4560" data-name="Path 4560" d="M1115.751,551.827c-2.314,2.311-2.314,2.311-2.314,4.629" transform="translate(381.371 -233.221)" fill="none" stroke="#000" stroke-linecap="round" stroke-linejoin="round" stroke-width="4.222"/>
    <path id="Path_4561" data-name="Path 4561" d="M991.4,602.5h-4.629" transform="translate(438.633 -256.128)" fill="none" stroke="#000" stroke-linecap="round" stroke-linejoin="round" stroke-width="4.222"/>
    <path id="Path_4562" data-name="Path 4562" d="M1058.55,387.159" transform="translate(406.183 -158.782)" fill="none" stroke="#18102b" stroke-linecap="round" stroke-linejoin="round" stroke-width="4.222"/>
    <path id="Path_4563" data-name="Path 4563" d="M799.075,475.821h-2.311" transform="translate(524.525 -198.862)" fill="none" stroke="#000" stroke-linecap="round" stroke-linejoin="round" stroke-width="4.222"/>
    <path id="Path_4564" data-name="Path 4564" d="M686.984,260.48" transform="translate(574.152 -101.516)" fill="none" stroke="#18102b" stroke-linecap="round" stroke-linejoin="round" stroke-width="4.222"/>
    <path id="Path_4565" data-name="Path 4565" d="M1185.22,199.462c2.314,0,2.314,0,2.314-2.312" transform="translate(348.922 -72.887)" fill="none" stroke="#000" stroke-linecap="round" stroke-linejoin="round" stroke-width="4.222"/>
    <path id="Path_4566" data-name="Path 4566" d="M1162.193,482.356c-2.312,0-2.312,0-2.312-2.317" transform="translate(360.375 -200.768)" fill="none" stroke="#000" stroke-linecap="round" stroke-linejoin="round" stroke-width="4.222"/>
    <path id="Path_4567" data-name="Path 4567" d="M1058.55,353.37" transform="translate(406.183 -143.507)" fill="none" stroke="#18102b" stroke-linecap="round" stroke-linejoin="round" stroke-width="4.222"/>
    <line id="Line_10" data-name="Line 10" x1="2.317" transform="translate(1325.914 337.115)" fill="none" stroke="#000" stroke-linecap="round" stroke-linejoin="round" stroke-width="4.222"/>
    <path id="Path_4568" data-name="Path 4568" d="M695.426,800.947" transform="translate(570.335 -345.837)" fill="none" stroke="#18102b" stroke-linecap="round" stroke-linejoin="round" stroke-width="4.222"/>
    <path id="Path_4569" data-name="Path 4569" d="M706.188,601.964c2.312-2.317-2.317,2.312-2.317,2.312" transform="translate(566.517 -255.592)" fill="none" stroke="#000" stroke-linecap="round" stroke-linejoin="round" stroke-width="4.222"/>
    <path id="Path_4570" data-name="Path 4570" d="M484.309,816.4c0-2.317,2.311-2.317,4.626,0" transform="translate(665.772 -352.036)" fill="none" stroke="#000" stroke-linecap="round" stroke-linejoin="round" stroke-width="4.222"/>
    <path id="Path_4571" data-name="Path 4571" d="M720.763,999.393" transform="translate(558.882 -435.545)" fill="none" stroke="#18102b" stroke-linecap="round" stroke-linejoin="round" stroke-width="4.222"/>
    <line id="Line_11" data-name="Line 11" y1="2.311" x2="2.311" transform="translate(1198.667 630.944)" fill="none" stroke="#000" stroke-linecap="round" stroke-linejoin="round" stroke-width="4.222"/>
    <path id="Path_4572" data-name="Path 4572" d="M796.764,1286.51h0" transform="translate(524.525 -565.338)" fill="none" stroke="#000" stroke-linecap="round" stroke-linejoin="round" stroke-width="4.222"/>
    <line id="Line_12" data-name="Line 12" y1="0.003" x2="0.423" transform="translate(1219.489 760.5)" fill="none" stroke="#000" stroke-linecap="round" stroke-linejoin="round" stroke-width="4.222"/>
    <path id="Path_4573" data-name="Path 4573" d="M842.61,996.628c-4.631,0,0,2.317,2.312,2.317" transform="translate(504.696 -434.295)" fill="none" stroke="#000" stroke-linecap="round" stroke-linejoin="round" stroke-width="4.222"/>
    <path id="Path_4574" data-name="Path 4574" d="M1371.7,1267.34v2.317" transform="translate(141.334 -698.042)" fill="none" stroke="#000" stroke-linecap="round" stroke-linejoin="round" stroke-width="4.222"/>
    <path id="Path_4575" data-name="Path 4575" d="M1094.641,1645.42h-2.314" transform="translate(390.914 -727.585)" fill="none" stroke="#000" stroke-linecap="round" stroke-linejoin="round" stroke-width="4.222"/>
    <path id="Path_4576" data-name="Path 4576" d="M902.314,1700.31" transform="translate(476.811 -752.398)" fill="none" stroke="#18102b" stroke-linecap="round" stroke-linejoin="round" stroke-width="4.222"/>
    <line id="Line_13" data-name="Line 13" transform="translate(1558.923 628.39)" fill="none" stroke="#000" stroke-linecap="round" stroke-linejoin="round" stroke-width="4.222"/>
    <path id="Path_4577" data-name="Path 4577" d="M1396.34,1590.52" transform="translate(130.196 -844.137)" fill="none" stroke="#18102b" stroke-linecap="round" stroke-linejoin="round" stroke-width="4.222"/>
    <path id="Path_4578" data-name="Path 4578" d="M1349.89,1573.63q3.476,3.467,6.943,0" transform="translate(151.193 -836.502)" fill="none" stroke="#000" stroke-linecap="round" stroke-linejoin="round" stroke-width="4.222"/>
    <path id="Path_4579" data-name="Path 4579" d="M1497.67,1522.96" transform="translate(84.389 -813.596)" fill="none" stroke="#18102b" stroke-linecap="round" stroke-linejoin="round" stroke-width="4.222"/>
    <path id="Path_4580" data-name="Path 4580" d="M1624.34,1286.51" transform="translate(27.126 -706.708)" fill="none" stroke="#18102b" stroke-linecap="round" stroke-linejoin="round" stroke-width="4.222"/>
    <path id="Path_4581" data-name="Path 4581" d="M1573.67,1255.049a2.269,2.269,0,0,0,2.317-2.317" transform="translate(50.032 -691.438)" fill="none" stroke="#000" stroke-linecap="round" stroke-linejoin="round" stroke-width="4.222"/>
    <path id="Path_4582" data-name="Path 4582" d="M1708.79,1071.18" transform="translate(40.458 -533.75)" fill="none" stroke="#18102b" stroke-linecap="round" stroke-linejoin="round" stroke-width="4.222"/>
    <path id="Path_4583" data-name="Path 4583" d="M1632.79,944.511" transform="translate(146.595 -410.735)" fill="none" stroke="#18102b" stroke-linecap="round" stroke-linejoin="round" stroke-width="4.222"/>
    <path id="Path_4584" data-name="Path 4584" d="M1700.34,855.829" transform="translate(116.059 -370.646)" fill="none" stroke="#18102b" stroke-linecap="round" stroke-linejoin="round" stroke-width="4.222"/>
    <path id="Path_4585" data-name="Path 4585" d="M1535.67,828.593v-2.312" transform="translate(190.499 -357.289)" fill="none" stroke="#000" stroke-linecap="round" stroke-linejoin="round" stroke-width="4.222"/>
    <path id="Path_4586" data-name="Path 4586" d="M1603.836,904.593c-6.94,6.94-4.628,4.629,0-2.312" transform="translate(161.665 -391.645)" fill="none" stroke="#000" stroke-linecap="round" stroke-linejoin="round" stroke-width="4.222"/>
    <path id="Path_4587" data-name="Path 4587" d="M1666.57,790.593a2.264,2.264,0,0,1,2.312-2.311" transform="translate(131.325 -340.111)" fill="none" stroke="#18102b" stroke-linecap="round" stroke-linejoin="round" stroke-width="4.222"/>
    <path id="Path_4649" data-name="Path 4649" d="M0,13.734a84.565,84.565,0,0,1,29.177-9.46c11.83-1.382,28.332,2.607,38.582,9.461C84.128,24.68,89,30.333,91.824,47.68c1.025,6.3-.928,14.929-1.845,24.741,0,0,7.277-18.422-1.122-38.168-2.007-4.724-2.459-7.479-6.511-12.2C75.574,14.165,65.374,5.234,52.084,1.563A73.437,73.437,0,0,0,33.378.09C23.054.714,10.2,4.156,0,13.734Z" transform="matrix(0.906, 0.423, -0.423, 0.906, 1760.447, 354.869)" fill="url(#linear-gradient)"/>
    <path id="Path_4423" data-name="Path 4423" d="M281.143,1207.456c7.712-33.732,37.589-50.665,63.353-44.688,28.507,6.344,51.288,34.216,44.822,64.846-7.59,31.616-37.589,57.883-69.328,45.189C295.09,1262.848,273.426,1241.193,281.143,1207.456Z" transform="translate(1436.14 -797.084)" fill="none" stroke="#18102b" stroke-linecap="round" stroke-linejoin="round" stroke-width="1"/>
    <path id="Path_4475" data-name="Path 4475" d="M203.582,1166.269c4.42-8.294,38.063,5.08,60.031,13.858l-3.158,4.172c-7.308-2.529-31.448-9.1-33.512-6.038s28.082,32.206,65.579,53.232c31.123,17.451,79.735,30.006,81.988,27.1s-10.945-14.265-19.732-20.859l1.847-5.631c18.613,12.895,47.551,35.431,43.438,45.184s-64.735-13-110.3-37.525C222.818,1203.732,199.16,1174.565,203.582,1166.269Z" transform="translate(1468.018 -798.023)" fill="#fff" stroke="#18102b" stroke-miterlimit="10" stroke-width="1"/>
    <path id="Path_4476" data-name="Path 4476" d="M486.17,1216.295l-1.8,4.907c-1.838-.067-4.654-.072-7.884.006-2.529-2.178-4.832-4.261-6.884-6.192C475.4,1215.4,481.074,1215.868,486.17,1216.295Z" transform="translate(1236.257 -821.237)" fill="#fff" stroke="#18102b" stroke-miterlimit="10" stroke-width="1"/>
    <path id="Path_4477" data-name="Path 4477" d="M398.276,1219.962c.967-4.952,11.806-6.395,25.288-6.373q4.006,3.869,9.151,8.172c-4.684.64-8.2,1.554-8.584,2.83-.758,2.484,17.54,12.661,43.1,21.661q12.453,7.737,27.864,16.075c1.244.674,2.5,1.337,3.768,2.006C426.706,1249.524,396.5,1229.047,398.276,1219.962Z" transform="translate(1262.691 -820.592)" fill="#fff" stroke="#18102b" stroke-miterlimit="10" stroke-width="1"/>
    <path id="Path_4478" data-name="Path 4478" d="M179.544,1276.376c.242.055.485.11.727.162,34.865,7.575,85.029,5.352,86.329,1.918s-14.641-10.438-24.976-14.175l.117-5.921c21.576,6.879,55.842,19.957,54.765,30.484-.85,8.329-41.419,7.559-83.452,1.877A261.922,261.922,0,0,1,179.544,1276.376Z" transform="translate(1584.833 -840.831)" fill="#fff" stroke="#18102b" stroke-miterlimit="10" stroke-width="1"/>
    <path id="Path_4479" data-name="Path 4479" d="M196.4,1274.88c8.043,4.027,17.1,9.057,23.461,15.417,10.056,10.06-10.051,7.046-15.752,5.7" transform="translate(1649.494 -848.299)" fill="none" stroke="#18102b" stroke-linecap="round" stroke-linejoin="round" stroke-width="1"/>
    <path id="Path_4480" data-name="Path 4480" d="M273.375,1298.75c4.693,5.7-15.084,6.032-18.772,6.361-12.735,1.013-25.479-1-38.547-1" transform="translate(1587.266 -859.09)" fill="none" stroke="#18102b" stroke-linecap="round" stroke-linejoin="round" stroke-width="1"/>
    <path id="Path_4481" data-name="Path 4481" d="M501.313,1267.611c-10.057-.668-19.442-5.364-28.493-8.717-11.065-4.016-23.464-8.043-32.181-16.42" transform="translate(1236.983 -833.65)" fill="none" stroke="#18102b" stroke-linecap="round" stroke-linejoin="round" stroke-width="1"/>
    <path id="Path_4482" data-name="Path 4482" d="M554.27,1221.67c-4.693,0-22.794,1.677-17.1,10.059" transform="translate(1131.735 -824.246)" fill="none" stroke="#18102b" stroke-linecap="round" stroke-linejoin="round" stroke-width="1"/>
    <path id="Path_4483" data-name="Path 4483" d="M541.028,1227.17c-2.008.674-2.345,3.358-1.337,5.37" transform="translate(1143.297 -826.732)" fill="none" stroke="#18102b" stroke-linecap="round" stroke-linejoin="round" stroke-width="1"/>
    <path id="Path_4484" data-name="Path 4484" d="M496.346,1224.517c-8.712-7.714-18.434-14.75-27.151-22.458-3.019-2.679-26.48-27.148-9.72-25.137" transform="translate(1234.909 -803.963)" fill="none" stroke="#18102b" stroke-linecap="round" stroke-linejoin="round" stroke-width="1"/>
    <path id="Path_4485" data-name="Path 4485" d="M500.377,1186.506c-7.372-4.69-17.1-5.03-25.472-7.035" transform="translate(1219.145 -805.169)" fill="none" stroke="#18102b" stroke-linecap="round" stroke-linejoin="round" stroke-width="1"/>
    <path id="Path_4486" data-name="Path 4486" d="M538.821,1172.159c-3.022-.674-12.067-2.685-14.415-.334-4.024,3.687,3.35,11.391,5.7,13.736" transform="translate(1154.224 -801.21)" fill="none" stroke="#18102b" stroke-linecap="round" stroke-linejoin="round" stroke-width="1"/>
    <path id="Path_4487" data-name="Path 4487" d="M269.4,1328.72c2.682,4.027,8.046,12.075,1,14.082-8.043,2.685-19.776-5.42-37.377-11.09" transform="translate(1578.17 -872.638)" fill="none" stroke="#18102b" stroke-linecap="round" stroke-linejoin="round" stroke-width="1"/>
    <path id="Path_4488" data-name="Path 4488" d="M223.912,1355.64c-.334,4.7-5.03,4.027-8.384,3.353" transform="translate(1637.735 -884.807)" fill="none" stroke="#18102b" stroke-linecap="round" stroke-linejoin="round" stroke-width="1"/>
    <path id="Path_4489" data-name="Path 4489" d="M323.57,1337.3c-6.367-3.353-13.741-5.359-20.448-8.042-16.757-6.367-33.521-13.747-50.278-20.11" transform="translate(1517.629 -863.792)" fill="none" stroke="#18102b" stroke-linecap="round" stroke-linejoin="round" stroke-width="1"/>
    <path id="Path_3829" data-name="Path 3829" d="M4858.85,1941.9s3.418-7.178,12.991-1.369" transform="translate(-3686.601 -1219.931)" fill="none" stroke="#707070" stroke-width="1"/>
    <path id="Path_3830" data-name="Path 3830" d="M4841.463,2016.265s-2.051-12.308,11.965-9.572c0,0,7.863-13.332,17.436,0" transform="translate(-3677.08 -1253.957)" fill="none" stroke="#707070" stroke-width="1"/>
    <path id="Path_3831" data-name="Path 3831" d="M4845.374,2079.04s-3.76,10.6,7.521,12.307" transform="translate(-3678.938 -1296.566)" fill="none" stroke="#707070" stroke-width="1"/>
    <path id="Path_3630" data-name="Path 3630" d="M0,.219,4.926,30.8,10.074,18.63l5.915,27.019L22.94,18.133,26.6,33.673,35.938,0S29.037,5.753,16.4,4.98C11.291,4.668,6.795,4.294,0,.219Z" transform="translate(1342.009 699.386) rotate(25.035)" fill="url(#linear-gradient-2)"/>
    <path id="Path_3838" data-name="Path 3838" d="M0,.106,2.363,14.777l2.47-5.841L7.671,21.9,11.006,8.7l1.757,7.455L17.241,0S14.13,1.205,8.07.834C5.616.684,3.261,2.06,0,.106Z" transform="translate(1348.004 706.565) rotate(25.035)" fill="url(#linear-gradient-3)"/>
    <path id="Path_3631" data-name="Path 3631" d="M0,13.734a90.939,90.939,0,0,1,30.474-9.46c12.356-1.382,29.589,2.607,40.3,9.461,17.1,10.945,23.86,23.945,26.8,41.294a70.35,70.35,0,0,1,.958,21.54s4.259-21.9-4.514-41.644c-2.1-4.724-3.938-9.428-8.169-14.15A64.323,64.323,0,0,0,54.4,1.564,79.991,79.991,0,0,0,34.861.09C24.079.714,10.648,4.156,0,13.734Z" transform="translate(1398.045 524.734) rotate(25.035)" fill="url(#linear-gradient)"/>
    <path id="Path_3629" data-name="Path 3629" d="M36.6,75.3s13.442-30.557-2.395-27.123-4.2,28.46,23.6,4.688c0,0,13.029-14.57,0-16.27s.164,36.26,28.409,23.061c0,0,5.145-3.265,2.505-8.279S74.878,49.958,74.878,75.3s-13.413,46.826-24.5,34.685c-4.866-5.33,1.056-14.783,9.041-10.24,9.066,5.151,17.589,24.291,5.431,32.677,0,0-16.632,7.5-26.4,2.795s-9.5-12.582-12.67-18.832-43.356-43.747-16.7-90.466C23.827.082,62.188-6.988,88.075,7.191,108.245,18.235,119.1,34.672,119.3,65.622s-27.26,51.09-30.431,65.369c-1.534,6.912.137,19.794-10.814,26.43-10.6,6.433-33.986,6.184-39.6-1.356,0,0-5.547-6.819.755-10.979,3.159-3.569,18.846-7.408,34.98-.921,3.6,1.42,10.14,5.819,11.046,11.046,1.036,5.871-.639,14.74-15.941,18.466-5.866,1.437-26.2,2.266-30.082-.89-5.036-3.925-11.139-23.021,28.668-13.555,3.361.8,15.735,4.438,16.287,10.479A12.658,12.658,0,0,1,80.413,180.6a26.638,26.638,0,0,1-15.562,6.247,48.554,48.554,0,0,1-13.827-.991,23.712,23.712,0,0,1-5.356-2.165c-5.387-2.761-10.483-7.985,11.871-5.34,0,0,7.171,1.325,10.338,3.965" transform="translate(1380.218 516.309) rotate(25.035)" fill="none" stroke="#000" stroke-miterlimit="10" stroke-width="1"/>
    <path id="Path_3827" data-name="Path 3827" d="M16.072,154.941s-6.5-20.17,10.256-27.691c0,0-10.256-14.7,4.1-23.247,0,0-17.777-2.393-16.068-27.007,0,0-14.7-2.051-14.356-19.486,0,0-.342-9.23,11.965-14.356,0,0-7.178-13.333,4.1-20.512a13.338,13.338,0,0,1,14.356,0S27.011,1.446,46.5.079,66.326,15.463,66.326,15.463s22.9.342,18.8,31.452c0,0,15.042-5.47,20.512,19.144,0,0,9.572,1.37,12.307,10.94,0,0,4.1-15.726,24.956-17.777s32.135,15.384,32.135,15.384h10.256L204.78,59.222s-7.521,24.614-1.709,31.452V102.3s16.068,1.026,19.828,13.333,0,17.777,0,17.777" transform="translate(1125.61 717.969) rotate(-4.992)" fill="none" stroke="#707070" stroke-width="1"/>
    <path id="Path_3827-2" data-name="Path 3827" d="M16.072,154.941s-6.5-20.17,10.256-27.691c0,0-10.256-14.7,4.1-23.247,0,0-17.777-2.393-16.068-27.007,0,0-14.7-2.051-14.356-19.486,0,0-.342-9.23,11.965-14.356,0,0-7.178-13.333,4.1-20.512a13.338,13.338,0,0,1,14.356,0S27.011,1.446,46.5.079,66.326,15.463,66.326,15.463s22.9.342,18.8,31.452c0,0,15.042-5.47,20.512,19.144,0,0,9.572,1.37,12.307,10.94,0,0,4.1-15.726,24.956-17.777s32.135,15.384,32.135,15.384h10.256L204.78,59.222s-7.521,24.614-1.709,31.452V102.3s16.068,1.026,19.828,13.333,0,17.777,0,17.777" transform="translate(1137.671 856.044) rotate(-4.992)" fill="none" stroke="#707070" stroke-width="1"/>
    <rect id="Rectangle_309" data-name="Rectangle 309" width="225.126" height="181.057" transform="translate(1125.309 717.717) rotate(-4.992)" fill="none"/>
    <path id="Path_3828" data-name="Path 3828" d="M0,6.059S1.709-4.881,15.042,2.64" transform="translate(1268.208 783.229) rotate(-4.992)" fill="none" stroke="#707070" stroke-width="1"/>
    <path id="Path_3832" data-name="Path 3832" d="M0,6.7S6.837-6.629,18.8,4.311c0,0,16.067-7.863,18.461,9.914" transform="translate(1193.493 831.304) rotate(-4.992)" fill="none" stroke="#707070" stroke-width="1"/>
    <path id="Path_3833" data-name="Path 3833" d="M0,7.985S7.521-2.271,18.8.464,30.425,13.454,30.425,13.454s7.868-4.811,16.738-2.477,11.359,10.581,11.2,15.716" transform="translate(1274.622 809.554) rotate(-4.992)" fill="none" stroke="#707070" stroke-width="1"/>
    <path id="Path_4647" data-name="Path 4647" d="M0,3.231A52.573,52.573,0,0,1,28.816,1.094" transform="translate(1361.614 557.13) rotate(8)" fill="none" stroke="#90ce4b" stroke-width="1"/>
    <path id="Path_4615" data-name="Path 4615" d="M866.847,642.068s-17.869,4.92-14.835,25.648,1.8,31.026,24.5,30.965c13.589-.037,22.942-29,15.819-45.279C887.558,642.5,866.847,642.068,866.847,642.068Z" transform="translate(481.938 -209.297)" fill="#fff" stroke="#1a1818" stroke-linecap="round" stroke-linejoin="round" stroke-width="1"/>
    <path id="Path_4616" data-name="Path 4616" d="M1121.69,645.279c-11.4-10.479-12.668-19.674-19.458-17.973-8.569,2.148-9.428,11.16-4.822,16.573s14.007,13.725,15.4,14.535c6.759,3.936,17.7,9.348,21.059,7.986l5.8-11.3C1136.955,652.642,1123.41,646.857,1121.69,645.279Z" transform="translate(288.638 -197.392)" fill="#fff" stroke="#1a1818" stroke-linecap="round" stroke-linejoin="round" stroke-width="1"/>
    <path id="Path_4617" data-name="Path 4617" d="M1286.45,775.338l5.135,1.753,5.821-11.288-5.159-1.767Z" transform="translate(136.051 -306.329)" fill="#fff" stroke="#1a1818" stroke-linecap="round" stroke-linejoin="round" stroke-width="1"/>
    <path id="Path_4618" data-name="Path 4618" d="M1313.3,784.268s1.619.829,5.96,3.317,4.274-.7,7.62-4.578-2.072-4.772-2.072-4.772,3.939-.442,3.7-2.575c-.334-2.935-7.748.184-10.885.229Z" transform="translate(114.692 -314.575)" fill="#fff" stroke="#1a1818" stroke-linecap="round" stroke-linejoin="round" stroke-width="1"/>
    <path id="Path_4622" data-name="Path 4622" d="M971.636,650.857c.044-16.478-.582-41.792-11.261-44.984-6.1-1.825-34.806,1.774-34.806,1.774a69.334,69.334,0,0,1-5.684,4.618c-10.888,8.164.723,42.033,5.808,60.681,5.285,21.168,5.534,47.648,5.534,47.648l10.145,1.676s2.433-4.157,4.515-13.914c2.234-10.479,7.26-36.719,7.26-36.719s10.621,2.931,12.346,4.433,5.069,17.922,8.019,32.253l11.99-1.475s-1.02-34.542-2.661-38.883S971.625,655.168,971.636,650.857Z" transform="translate(431.255 -180.092)" fill="#fff" stroke="#1a1818" stroke-linecap="round" stroke-linejoin="round" stroke-width="1"/>
    <path id="Path_4623" data-name="Path 4623" d="M1195.2,1034.438l-.7-17.238s-1.191,1.889-7.336,2.644a31.716,31.716,0,0,1-8.781-.649s2.537,13.473,2.63,15.162c.384,6.872-.012,6.146.885,13.45l28.464-3.5C1212.306,1036.926,1206.63,1030.3,1195.2,1034.438Z" transform="translate(222.022 -507.727)" fill="#fff" stroke="#1a1818" stroke-linecap="round" stroke-linejoin="round" stroke-width="1"/>
    <path id="Path_4624" data-name="Path 4624" d="M1224.308,1151.673c-.649.08-.577.664-1.227.743s-.72-.5-1.37-.424-.575.663-1.224.744-.719-.505-1.366-.426-.575.665-1.223.743-.721-.5-1.37-.425-.577.664-1.224.744-.719-.505-1.37-.425-.576.664-1.222.744-.72-.506-1.37-.426-.576.664-1.224.744-.718-.5-1.365-.425-.577.663-1.224.743-.719-.505-1.37-.425-.576.663-1.224.743-.72-.505-1.366-.425-.576.664-1.224.743-.719-.5-1.365-.426-.576.665-1.223.744-.72-.505-1.367-.425-.576.664-1.224.743-.719-.5-1.366-.426l-.234-1.9,28.5-3.5Z" transform="translate(208.347 -613.194)" fill="#fff" stroke="#1a1818" stroke-linecap="round" stroke-linejoin="round" stroke-width="1"/>
    <path id="Path_4625" data-name="Path 4625" d="M992.849,1122.715l2.369-17.089s-1.507,1.648-7.688,1.3a31.634,31.634,0,0,1-8.528-2.195s.11,13.711-.1,15.388c-.841,6.835-1.1,6.048-1.512,13.4l28.633,1.6C1009.243,1128.194,1004.832,1120.665,992.849,1122.715Z" transform="translate(381.918 -577.363)" fill="#fff" stroke="#1a1818" stroke-linecap="round" stroke-linejoin="round" stroke-width="1"/>
    <path id="Path_4626" data-name="Path 4626" d="M1005.54,1249.025c-.653-.036-.686.551-1.338.514s-.619-.624-1.273-.661-.684.548-1.336.515-.619-.625-1.271-.661-.685.548-1.335.515-.62-.625-1.27-.661-.686.548-1.337.514-.619-.625-1.272-.661-.683.552-1.335.517-.618-.625-1.269-.662-.684.552-1.335.516-.619-.625-1.27-.661-.684.551-1.336.514-.618-.623-1.271-.658-.684.551-1.334.515-.62-.625-1.271-.661-.684.551-1.335.516-.62-.625-1.27-.661-.683.551-1.336.516-.618-.625-1.269-.662-.684.553-1.336.515-.617-.623-1.268-.657l.106-1.91,28.667,1.6Z" transform="translate(382.331 -689.358)" fill="#fff" stroke="#1a1818" stroke-linecap="round" stroke-linejoin="round" stroke-width="1"/>
    <path id="Path_4627" data-name="Path 4627" d="M888.492,682.507c1.487-15.416,2.609-26.36,2.609-26.36-6.88-5.543-14.588-.794-16.129,6.144s-2.508,19.452-2.316,21.048c.935,7.767,3.209,19.753,6.323,21.615l12.513-2.186C891.821,699.125,888.268,684.826,888.492,682.507Z" transform="translate(465.259 -218.564)" fill="#fff" stroke="#1a1818" stroke-linecap="round" stroke-linejoin="round" stroke-width="1"/>
    <path id="Path_4628" data-name="Path 4628" d="M903.672,895.8l1.7,5.156,12.515-2.16-1.7-5.182Z" transform="translate(440.564 -409.406)" fill="#fff" stroke="#1a1818" stroke-linecap="round" stroke-linejoin="round" stroke-width="1"/>
    <path id="Path_4629" data-name="Path 4629" d="M917.191,921.5s.315,1.793.947,6.756,2.9,8.267,8.014,8.6,6.9-1.644,5.221-6.094a16.033,16.033,0,0,0-2.43-3.717s2.725,2.875,4.282,1.4c2.137-2.037-4.818-6.072-6.745-8.548Z" transform="translate(429.809 -430.317)" fill="#fff" stroke="#1a1818" stroke-linecap="round" stroke-linejoin="round" stroke-width="1"/>
    <path id="Path_4630" data-name="Path 4630" d="M958.066,958.633s2.993,5.75,5.583,7.969" transform="translate(397.292 -461.136)" fill="none" stroke="#1a1818" stroke-linecap="round" stroke-linejoin="round" stroke-width="1"/>
    <path id="Path_4631" data-name="Path 4631" d="M951.161,970.544s-2.939-1.738-4.907-8.31" transform="translate(406.689 -464.002)" fill="none" stroke="#1a1818" stroke-linecap="round" stroke-linejoin="round" stroke-width="1"/>
    <path id="Path_4632" data-name="Path 4632" d="M938.681,970.812a14.7,14.7,0,0,1-3.462-7.894" transform="translate(415.467 -464.545)" fill="none" stroke="#1a1818" stroke-linecap="round" stroke-linejoin="round" stroke-width="1"/>
    <path id="Path_4633" data-name="Path 4633" d="M898.264,564.053s2.44,9.1,6.113,12.529-4.135,3.89-3.683,6.242c.672,3.469,14.469,9.827,25.181,8.923,21.483-1.816,26.866-13.894,26.866-13.894-.12-2.845-3.906-3.874-3.906-3.874s.851-3.691-.689-5.611Z" transform="translate(444.867 -147.234)" fill="#fff" stroke="#1a1818" stroke-linecap="round" stroke-linejoin="round" stroke-width="1"/>
    <path id="Path_4634" data-name="Path 4634" d="M939.181,373.337a29.724,29.724,0,1,1-34.014-24.7A29.724,29.724,0,0,1,939.181,373.337Z" transform="translate(459.32 24.431)" fill="#fff" stroke="#1a1818" stroke-linecap="round" stroke-linejoin="round" stroke-width="1"/>
    <path id="Path_4635" data-name="Path 4635" d="M966.667,372.833c-14.063,13.732-10.192,29.416-10.192,29.416s20.8,20.76,41.563-1.321c0,0,4.785-10.108.731-21.048a31.486,31.486,0,0,0-13.838-15.89S975.825,363.892,966.667,372.833Z" transform="translate(398.947 11.922)" fill="#79c346" stroke="#000" stroke-width="1"/>
    <path id="Path_4636" data-name="Path 4636" d="M980.254,399.943c-21.5,18.247-42.033-4.838-42.033-4.838S936.138,362.7,964.448,354.2" transform="translate(413.108 19.715)" fill="none" stroke="#1a1818" stroke-linecap="round" stroke-linejoin="round" stroke-width="1"/>
    <path id="Path_4637" data-name="Path 4637" d="M979.927,457.657c-2.766,4.7-2.76,12.986-.379,13.88s1.8-8.416,4.877-12.007C987.665,455.758,982.723,452.909,979.927,457.657Z" transform="translate(381.589 -60.613)" fill="#fff" stroke="#000" stroke-width="1"/>
    <path id="Path_4638" data-name="Path 4638" d="M1003.258,424.729a2.36,2.36,0,0,0-.69,3.233l.135.209a2.34,2.34,0,0,0,3.926-2.546l-.135-.209a2.361,2.361,0,0,0-3.237-.688Z" transform="translate(362.183 -36.102)" fill="#fff" stroke="#000" stroke-width="1"/>
    <path id="Path_4639" data-name="Path 4639" d="M1110.925,528.564a1.135,1.135,0,0,0-1.764-.175c-1.445,1.5-7.456,5.151-5.352,7.826,1.607,2.045,3.88.583,5.464-1.493C1111.171,533.062,1112.437,530.651,1110.925,528.564Z" transform="translate(281.7 -118.589)" fill="#fff" stroke="#000" stroke-width="1"/>
    <path id="Path_4640" data-name="Path 4640" d="M875.314,483.094c-3.439-1.055-7.79-5.115-9.469-10.582-1.21-3.945.475-7.953,3.167-7.431,0,0-1.889,10.734,8.505,14.031Z" transform="translate(470.975 -68.462)" fill="#fff" stroke="#1a1818" stroke-linecap="round" stroke-linejoin="round" stroke-width="1"/>
    <path id="Path_4641" data-name="Path 4641" d="M923.551,533.216a5.045,5.045,0,1,1-6.267-3.409A5.045,5.045,0,0,1,923.551,533.216Z" transform="translate(432.613 -119.827)" fill="#fff" stroke="#1a1818" stroke-linecap="round" stroke-linejoin="round" stroke-width="1"/>
    <path id="Path_4642" data-name="Path 4642" d="M932.052,545.321a2.147,2.147,0,1,1-2.667-1.45A2.147,2.147,0,0,1,932.052,545.321Z" transform="translate(421.334 -131.107)" fill="#fff" stroke="#1a1818" stroke-linecap="round" stroke-linejoin="round" stroke-width="1"/>
    <path id="Path_4643" data-name="Path 4643" d="M931.057,628.747s10.469,10.59,25.653,8.265" transform="translate(418.779 -198.7)" fill="none" stroke="#1a1818" stroke-linecap="round" stroke-linejoin="round" stroke-width="1"/>
    <path id="Path_4644" data-name="Path 4644" d="M1108.43,612.6s-4.588,6.418-9.552,8.679" transform="translate(285.273 -185.854)" fill="none" stroke="#1a1818" stroke-linecap="round" stroke-linejoin="round" stroke-width="1"/>
    <path id="Path_4645" data-name="Path 4645" d="M1043.581,694.469s-1.932-1.825-5.445-.833l-21.761,6.154a2.736,2.736,0,0,0-2.383,3.051l3.04,24.729a2.735,2.735,0,0,0,3.049,2.384l24.261-6.858c.741-.091,2.794-3.092,2.794-3.092Z" transform="translate(352.819 -250.086)" fill="#fff" stroke="#1a1818" stroke-linecap="round" stroke-linejoin="round" stroke-width="1"/>
    <path id="Path_4646" data-name="Path 4646" d="M1065.025,721.606a2.432,2.432,0,0,1-2.117,2.712l-21.561,6.095a2.433,2.433,0,0,1-2.711-2.117l-2.7-21.977a2.433,2.433,0,0,1,2.117-2.712l21.562-6.1a2.432,2.432,0,0,1,2.71,2.118Z" transform="translate(335.359 -253.39)" fill="#fff" stroke="#1a1818" stroke-linecap="round" stroke-linejoin="round" stroke-width="1"/>
    <line id="Line_14" data-name="Line 14" y1="2.585" x2="3.326" transform="translate(1371.473 476.427)" fill="#fff" stroke="#1a1818" stroke-linecap="round" stroke-linejoin="round" stroke-width="1"/>
    <line id="Line_15" data-name="Line 15" x2="4.112" y2="0.959" transform="translate(1367.331 450.788)" fill="#fff" stroke="#1a1818" stroke-linecap="round" stroke-linejoin="round" stroke-width="1"/>
  </g>
</svg>
